<svg width="35" height="13" viewBox="0 0 35 13" fill="none" xmlns="http://www.w3.org/2000/svg">
<path d="M33.4626 5.74817C33.4626 5.76333 33.4626 6.28117 33.4626 6.28117C33.0954 6.11479 32.6949 6.04052 32.2942 6.0645C31.7828 6.10622 31.2941 6.29967 30.8876 6.62133C30.7106 6.7722 30.5713 6.96442 30.4814 7.18192C30.3915 7.39942 30.3536 7.63587 30.3709 7.8715C30.3706 8.29117 30.5291 8.69453 30.8128 8.99649C31.0964 9.29845 31.4832 9.47539 31.8914 9.49H35V9.3015C34.8645 9.27621 34.7411 9.20512 34.6494 9.09952C34.5577 8.99393 34.5029 8.85988 34.4939 8.71867V5.9735C34.4939 4.61933 33.2411 4.22283 32.4587 4.24017C31.8902 4.25526 31.3415 4.45811 30.8939 4.81867L31.438 5.63333L31.6742 5.47517C31.671 5.38279 31.6884 5.29089 31.7249 5.20642C31.7615 5.12196 31.8162 5.04715 31.8851 4.98767C32.0803 4.83288 32.3245 4.75804 32.5704 4.77765C32.8162 4.79727 33.0462 4.90994 33.2158 5.09383C33.3695 5.2759 33.4568 5.50724 33.4626 5.74817ZM33.4626 8.1315C33.4626 8.476 33.1526 8.82483 32.3533 8.82483C32.1123 8.80573 31.8867 8.69586 31.7197 8.51632C31.5527 8.33677 31.4562 8.1002 31.4486 7.852C31.4442 7.7176 31.4666 7.58371 31.5143 7.45848C31.562 7.33326 31.634 7.21933 31.726 7.12364C31.8179 7.02795 31.9279 6.9525 32.0492 6.9019C32.1704 6.8513 32.3005 6.82661 32.4313 6.82933C33.1188 6.82933 33.4605 7.20417 33.4605 7.47933C33.4584 7.46417 33.4605 8.01667 33.4605 8.125L33.4626 8.1315Z" fill="url(#paint0_linear_1089_2519)"/>
<path d="M29.6813 0.413833V6.1425C29.1688 6.4285 28.7196 7.22583 28.3653 7.70683L28.3294 1.79833C28.3304 1.6606 28.2865 1.52651 28.2047 1.41737C28.1229 1.30823 28.008 1.23031 27.8781 1.196V0.979333L29.6813 0.413833Z" fill="url(#paint1_linear_1089_2519)"/>
<path d="M27.9773 9.22133C28.0903 9.18028 28.189 9.10564 28.2607 9.00689C28.3324 8.90813 28.374 8.78972 28.3801 8.66667V6.95067C28.572 6.4675 29.0127 6.084 29.6897 5.56617V8.6515C29.6957 8.78173 29.7415 8.90669 29.8207 9.00861C29.8998 9.11053 30.0082 9.18421 30.1305 9.21917V9.49217H27.9857L27.9773 9.22133Z" fill="url(#paint2_linear_1089_2519)"/>
<path d="M27.0704 8.66667C27.0805 8.79281 27.128 8.91275 27.2064 9.01036C27.2848 9.10797 27.3904 9.17857 27.5091 9.21267V9.49H24.8349C24.4239 9.47871 24.0334 9.30298 23.7467 9.00027C23.4599 8.69755 23.2995 8.29176 23.2996 7.86933V4.2185H24.7886V4.47633C24.6675 4.51623 24.5617 4.59414 24.486 4.69909C24.4103 4.80404 24.3686 4.93074 24.3668 5.06133L24.3499 7.70467C24.3591 7.96091 24.4638 8.2037 24.6425 8.38278C24.8211 8.56186 25.0599 8.6635 25.3095 8.66667C25.9126 8.66667 26.0286 8.203 26.0286 8.05567V4.2185H27.5049V4.4785C27.3828 4.51804 27.2761 4.59646 27.2003 4.7024C27.1245 4.80835 27.0834 4.93633 27.0831 5.06783C27.0831 5.06783 27.0704 8.45 27.0704 8.66667Z" fill="url(#paint3_linear_1089_2519)"/>
<path d="M19.7503 2.27283V4.2835L18.6579 5.72V3.60967C18.6625 3.47683 18.626 3.34591 18.5536 3.23573C18.4812 3.12555 18.3767 3.04179 18.2551 2.9965V2.7365L19.7503 2.27283Z" fill="url(#paint4_linear_1089_2519)"/>
<path d="M20.1552 9.477H18.2572V9.21267C18.3666 9.17014 18.4617 9.09593 18.531 8.99903C18.6002 8.90213 18.6406 8.78668 18.6473 8.66667C18.6473 8.6515 18.6473 7.62233 18.6473 7.62233L19.744 6.15767V8.66667C19.7473 8.79018 19.7876 8.90965 19.8593 9.00887C19.9309 9.1081 20.0306 9.18227 20.1447 9.22133L20.1552 9.477Z" fill="url(#paint5_linear_1089_2519)"/>
<path d="M19.7503 4.76667C19.7503 4.76667 19.0691 5.65067 18.6558 6.23783C18.0421 7.1045 17.0003 8.5995 14.8428 8.5995C14.0836 8.5995 13.0397 8.40883 12.3775 7.2995C11.9522 6.53117 11.7695 5.64621 11.8545 4.76667C12.0232 3.29333 12.8942 1.90017 14.5181 1.90017C14.9161 1.9035 15.3081 2.00101 15.6636 2.18513C16.0191 2.36924 16.3286 2.63502 16.5679 2.96183C16.6853 3.13369 16.7473 3.33905 16.7451 3.549L16.9349 3.70283L16.9602 3.7245L18.1138 2.56533C17.6028 1.8937 16.9079 1.39453 16.1185 1.13208C15.3291 0.869626 14.4813 0.8559 13.6842 1.09267C12.8871 1.32944 12.1772 1.80586 11.6459 2.46063C11.1146 3.11539 10.7862 3.91853 10.703 4.76667C10.6874 4.91925 10.6797 5.07258 10.6798 5.226C10.6801 5.78579 10.788 6.34001 10.9974 6.85682C11.2068 7.37362 11.5136 7.84281 11.9 8.23743C12.2865 8.63206 12.745 8.94433 13.2493 9.15631C13.7536 9.3683 14.2937 9.47581 14.8386 9.47267C16.3591 9.47267 17.5338 8.77933 18.6579 7.1045C18.7106 7.0265 19.5605 5.8955 19.5605 5.8955C19.5605 5.8955 20.1046 5.17183 20.1194 5.15883C20.184 5.09155 20.263 5.04066 20.3502 5.0102C20.4373 4.97974 20.5301 4.97054 20.6213 4.98333C20.8567 5.01778 21.0716 5.13987 21.2252 5.3264C21.3788 5.51294 21.4603 5.75093 21.4543 5.99517V8.63417C21.4544 8.76253 21.4157 8.88776 21.3436 8.99255C21.2714 9.09734 21.1694 9.17653 21.0515 9.21917V9.477H22.9496V9.21917C22.8233 9.1824 22.7122 9.10433 22.633 8.9968C22.5538 8.88927 22.511 8.75815 22.5109 8.62333V5.8695C22.5148 5.65423 22.4769 5.44033 22.3994 5.2403C22.3218 5.04028 22.2062 4.85816 22.0593 4.70461C21.9124 4.55107 21.7372 4.42917 21.5438 4.34607C21.3505 4.26298 21.143 4.22034 20.9334 4.22067C20.7101 4.22223 20.4896 4.27159 20.2859 4.36559C20.0822 4.4596 19.8998 4.5962 19.7503 4.76667Z" fill="url(#paint6_linear_1089_2519)"/>
<path d="M18.6537 8.6515C18.6537 8.63633 18.6537 7.60717 18.6537 7.60717L19.7503 6.1425V7.86067L18.6537 8.6515Z" fill="url(#paint7_linear_1089_2519)"/>
<path d="M21.4522 5.954V8.44133H22.5088L22.5025 5.95833L21.4522 5.954Z" fill="url(#paint8_linear_1089_2519)"/>
<path d="M10.7051 11.2342C10.7048 11.0878 10.7411 10.9438 10.8105 10.816C10.8796 10.6865 10.9807 10.5781 11.1037 10.5018C11.2303 10.4214 11.3767 10.38 11.5255 10.3827C11.6047 10.3824 11.6836 10.394 11.7596 10.4173C11.8236 10.4357 11.8847 10.4634 11.9409 10.4997C11.9851 10.5293 12.0274 10.5619 12.0675 10.5972C12.0965 10.6222 12.1227 10.6505 12.1455 10.6817L12.1687 10.7142L11.9578 10.9135L11.9283 10.8918C11.937 10.8792 11.9414 10.864 11.9409 10.8485C11.9366 10.809 11.924 10.7709 11.904 10.7368C11.884 10.7028 11.857 10.6736 11.8249 10.6513C11.7391 10.5807 11.6312 10.5445 11.5213 10.5495C11.4463 10.549 11.3723 10.5663 11.3049 10.6002C11.2376 10.634 11.1788 10.6834 11.1332 10.7445C11.0228 10.8821 10.9644 11.0559 10.9687 11.2342C10.9656 11.4042 11.0226 11.5697 11.129 11.7C11.1765 11.7622 11.2374 11.8123 11.3069 11.8461C11.3765 11.8799 11.4528 11.8967 11.5297 11.895C11.5848 11.8954 11.6398 11.8911 11.6942 11.882C11.7362 11.8751 11.7777 11.8657 11.8186 11.8538C11.8542 11.8424 11.8882 11.8264 11.9198 11.8062L11.9958 11.7542L12.0654 11.6913L12.1286 11.6328L12.2088 11.7217L12.1835 11.7607C12.1585 11.7919 12.1318 11.8216 12.1033 11.8495C12.0626 11.8906 12.0181 11.9276 11.9705 11.96C11.9107 11.9984 11.8461 12.0283 11.7785 12.0488C11.6981 12.0751 11.6141 12.0882 11.5297 12.0878C11.3799 12.089 11.2331 12.0445 11.1079 11.96C10.9832 11.8802 10.8796 11.7701 10.8063 11.6393C10.7382 11.5159 10.7032 11.3761 10.7051 11.2342Z" fill="#898989"/>
<path d="M13.2991 11.9037C13.2989 11.9375 13.3101 11.9704 13.3307 11.9968C13.338 12.0087 13.3479 12.0186 13.3597 12.0257C13.3714 12.0329 13.3846 12.0371 13.3982 12.038V12.077H12.9511V12.038C12.9644 12.0369 12.9773 12.0326 12.9886 12.0255C13 12.0183 13.0095 12.0085 13.0165 11.9968C13.0356 11.9714 13.046 11.9402 13.046 11.908V11.2927C13.0453 11.2361 13.03 11.1808 13.0017 11.1323C12.9902 11.1081 12.9721 11.0876 12.9497 11.0734C12.9274 11.0593 12.9015 11.0519 12.8752 11.0522C12.8283 11.0529 12.7831 11.0697 12.7465 11.0998C12.7068 11.1311 12.6725 11.1693 12.6453 11.2125V11.9037C12.645 11.9372 12.6554 11.9699 12.6748 11.9968C12.6817 12.0086 12.6912 12.0186 12.7026 12.0257C12.714 12.0329 12.7269 12.0371 12.7402 12.038V12.077H12.2952V12.038C12.3088 12.0369 12.3218 12.0323 12.3332 12.0248C12.3446 12.0172 12.354 12.0069 12.3606 11.9947C12.3795 11.9683 12.3898 11.9364 12.3901 11.9037V10.6708C12.3903 10.638 12.3799 10.606 12.3606 10.5798C12.3538 10.568 12.3443 10.5581 12.3329 10.5509C12.3215 10.5438 12.3086 10.5396 12.2952 10.5387V10.4997L12.6559 10.4V10.9785C12.6845 10.9433 12.7199 10.9146 12.7598 10.8941C12.7997 10.8736 12.8433 10.8618 12.8878 10.8593C12.995 10.8593 13.0984 10.8994 13.1789 10.972C13.2235 11.0127 13.2584 11.0634 13.2811 11.1201C13.3037 11.1768 13.3135 11.238 13.3096 11.2992L13.2991 11.9037Z" fill="#898989"/>
<path d="M14.4717 10.8485V10.8875C14.4581 10.8886 14.4451 10.8932 14.4337 10.9007C14.4223 10.9083 14.4128 10.9186 14.4063 10.9308C14.3874 10.9572 14.377 10.9891 14.3768 11.0218V11.9037C14.3767 11.9372 14.3871 11.9698 14.4063 11.9968C14.4128 12.009 14.4223 12.0194 14.4337 12.0269C14.4451 12.0345 14.4581 12.039 14.4717 12.0402V12.077H13.898C13.8487 12.0772 13.7997 12.0699 13.7525 12.0553C13.7051 12.0401 13.6603 12.0175 13.6196 11.9882C13.5753 11.9557 13.5403 11.9116 13.5184 11.8603C13.4915 11.7999 13.4786 11.7339 13.4805 11.6675V10.8485H13.8284V10.8875C13.8151 10.8884 13.8022 10.8926 13.7908 10.8998C13.7794 10.9069 13.7699 10.9169 13.7631 10.9287C13.7442 10.9543 13.7338 10.9854 13.7335 11.0175V11.6675C13.7334 11.7184 13.7481 11.7682 13.7757 11.8105C13.7884 11.8319 13.8065 11.8493 13.828 11.8611C13.8495 11.873 13.8737 11.8787 13.898 11.8777C13.9736 11.8825 14.0484 11.8594 14.1089 11.8127V10.8485H14.4717Z" fill="#898989"/>
<path d="M14.9061 10.4V11.9167C14.9059 11.9495 14.9163 11.9815 14.9356 12.0077C14.9424 12.0195 14.952 12.0294 14.9634 12.0366C14.9747 12.0437 14.9877 12.0479 15.001 12.0488V12.0857H14.5539V12.0488C14.5672 12.0478 14.58 12.0435 14.5914 12.0363C14.6028 12.0292 14.6123 12.0193 14.6193 12.0077C14.6387 11.9816 14.6491 11.9495 14.6488 11.9167V10.6817C14.6491 10.6488 14.6387 10.6168 14.6193 10.5907C14.6123 10.579 14.6028 10.5692 14.5914 10.562C14.58 10.5549 14.5672 10.5506 14.5539 10.5495V10.5105L14.9061 10.4Z" fill="#898989"/>
<path d="M15.6084 12.077C15.4762 12.0827 15.3459 12.0439 15.2372 11.9665C15.191 11.9332 15.1535 11.8887 15.1281 11.8369C15.1027 11.7851 15.0902 11.7276 15.0917 11.6697C15.0922 11.6127 15.1073 11.557 15.1354 11.5079C15.1636 11.4589 15.2038 11.4183 15.252 11.3902C15.3508 11.3207 15.4675 11.2829 15.5873 11.2818C15.6733 11.282 15.7579 11.3035 15.834 11.3447V11.2667C15.8367 11.24 15.8367 11.2132 15.834 11.1865C15.8277 11.1565 15.8178 11.1274 15.8045 11.0998C15.7904 11.0691 15.7676 11.0434 15.7391 11.0262C15.7064 11.0071 15.6692 10.9974 15.6316 10.998C15.5714 10.9921 15.5109 11.0057 15.4586 11.037C15.4426 11.0501 15.4298 11.067 15.4213 11.0862C15.4129 11.1054 15.409 11.1264 15.4101 11.1475L15.3658 11.18L15.214 10.9482L15.2604 10.9135C15.3054 10.8896 15.3528 10.8707 15.4017 10.8572C15.474 10.8384 15.5486 10.8304 15.6231 10.8333C15.6873 10.8292 15.7515 10.8392 15.8115 10.8628C15.8716 10.8863 15.926 10.9228 15.9711 10.9698C16.0593 11.0805 16.103 11.2215 16.0934 11.3642V11.908C16.0928 11.9429 16.1032 11.9771 16.1229 12.0055C16.1297 12.0176 16.1391 12.0278 16.1505 12.0354C16.1619 12.0429 16.1748 12.0475 16.1883 12.0488V12.0857L15.6084 12.077ZM15.3532 11.6783C15.3556 11.7322 15.3774 11.7831 15.4143 11.8213C15.44 11.8479 15.4711 11.8683 15.5054 11.881C15.5397 11.8937 15.5763 11.8985 15.6126 11.895C15.6848 11.8949 15.7563 11.8809 15.8235 11.8538V11.5288C15.7607 11.4869 15.6875 11.4644 15.6126 11.4638C15.5765 11.4613 15.5404 11.4663 15.5063 11.4786C15.4722 11.4909 15.4409 11.5102 15.4143 11.5353C15.3774 11.5735 15.3556 11.6245 15.3532 11.6783Z" fill="#898989"/>
<path d="M16.6228 10.4V11.9167C16.6226 11.9495 16.633 11.9815 16.6523 12.0077C16.6591 12.0195 16.6686 12.0294 16.68 12.0366C16.6914 12.0437 16.7043 12.0479 16.7177 12.0488V12.0857H16.2727V12.0488C16.286 12.0478 16.2988 12.0435 16.3102 12.0363C16.3216 12.0292 16.3311 12.0193 16.3381 12.0077C16.3575 11.9816 16.3679 11.9495 16.3676 11.9167V10.6817C16.3679 10.6488 16.3575 10.6168 16.3381 10.5907C16.3311 10.579 16.3216 10.5692 16.3102 10.562C16.2988 10.5549 16.286 10.5506 16.2727 10.5495V10.5105L16.6228 10.4Z" fill="#898989"/>
<path d="M16.9771 11.0197C17.0317 10.9615 17.0973 10.9152 17.1697 10.8836C17.2422 10.852 17.3201 10.8357 17.3989 10.8357C17.4776 10.8357 17.5555 10.852 17.628 10.8836C17.7004 10.9152 17.766 10.9615 17.8206 11.0197C17.9326 11.1346 17.9956 11.2904 17.9957 11.453C17.9991 11.5385 17.9854 11.6238 17.9552 11.7036C17.9251 11.7834 17.8793 11.8559 17.8206 11.9167C17.7668 11.9763 17.7015 12.0238 17.6289 12.0563C17.5563 12.0888 17.478 12.1056 17.3989 12.1056C17.3197 12.1056 17.2414 12.0888 17.1688 12.0563C17.0962 12.0238 17.031 11.9763 16.9771 11.9167C16.9205 11.8579 16.8759 11.7882 16.8458 11.7116C16.8158 11.635 16.8009 11.5529 16.802 11.4703C16.7998 11.3869 16.8142 11.3039 16.8443 11.2265C16.8744 11.149 16.9196 11.0786 16.9771 11.0197ZM17.1669 11.7628C17.1928 11.8017 17.2276 11.8335 17.2682 11.8555C17.3088 11.8775 17.354 11.8889 17.3999 11.8889C17.4458 11.8889 17.491 11.8775 17.5316 11.8555C17.5722 11.8335 17.607 11.8017 17.6329 11.7628C17.6956 11.6764 17.7294 11.5716 17.7294 11.4638C17.7294 11.3561 17.6956 11.2512 17.6329 11.1648C17.6067 11.1264 17.5718 11.095 17.5312 11.0733C17.4907 11.0517 17.4456 11.0404 17.3999 11.0404C17.3542 11.0404 17.3091 11.0517 17.2686 11.0733C17.228 11.095 17.1931 11.1264 17.1669 11.1648C17.1042 11.2512 17.0704 11.3561 17.0704 11.4638C17.0704 11.5716 17.1042 11.6764 17.1669 11.7628Z" fill="#898989"/>
<path d="M19.0923 11.9037C19.0923 11.9375 19.1035 11.9704 19.124 11.9968C19.1311 12.009 19.141 12.0192 19.1527 12.0267C19.1644 12.0342 19.1777 12.0389 19.1914 12.0402V12.077H18.7401V12.0402C18.7536 12.0389 18.7666 12.0342 18.778 12.0267C18.7894 12.0192 18.7988 12.0089 18.8055 11.9968C18.8244 11.9712 18.8347 11.9401 18.835 11.908V11.2407C18.8354 11.19 18.8215 11.1404 18.795 11.0977C18.7821 11.0765 18.764 11.0594 18.7425 11.0479C18.721 11.0365 18.6968 11.0312 18.6726 11.0327C18.6285 11.0323 18.5849 11.0434 18.5461 11.0652C18.5079 11.0863 18.4747 11.1159 18.4491 11.1518V11.9037C18.4489 11.9372 18.4593 11.9698 18.4786 11.9968C18.4853 12.0089 18.4948 12.0192 18.5062 12.0267C18.5175 12.0342 18.5305 12.0389 18.544 12.0402V12.077H18.099V12.0402C18.1126 12.0392 18.1257 12.0348 18.1372 12.0272C18.1486 12.0196 18.158 12.0092 18.1644 11.9968C18.1835 11.9697 18.1938 11.9371 18.1939 11.9037V11.1085C18.1942 11.075 18.1839 11.0423 18.1644 11.0153C18.1576 11.0035 18.1481 10.9936 18.1367 10.9864C18.1253 10.9793 18.1124 10.9751 18.099 10.9742V10.9373L18.4512 10.8333V10.9222C18.4809 10.8929 18.5159 10.8699 18.5543 10.8547C18.5927 10.8394 18.6336 10.8322 18.6748 10.8333C18.724 10.8331 18.7731 10.8404 18.8203 10.855C18.8677 10.8702 18.9125 10.8929 18.9531 10.9222C18.9975 10.9546 19.0325 10.9988 19.0544 11.05C19.0812 11.1104 19.0942 11.1764 19.0923 11.2428V11.9037Z" fill="#898989"/>
<path d="M20.1405 10.9547C20.1893 10.9899 20.2293 11.0366 20.2571 11.0909C20.285 11.1451 20.2999 11.2053 20.3007 11.2667C20.3016 11.334 20.2857 11.4004 20.2543 11.4595C20.2254 11.5154 20.1843 11.5636 20.1341 11.6003C20.0856 11.6355 20.0323 11.6632 19.976 11.6827C19.9223 11.7012 19.866 11.7107 19.8094 11.7108C19.6224 11.7108 19.5289 11.7376 19.5289 11.791C19.5289 11.8444 19.661 11.8755 19.9254 11.8842C19.9619 11.882 19.9985 11.882 20.035 11.8842C20.0829 11.891 20.1302 11.9018 20.1763 11.9167C20.2267 11.9318 20.2749 11.9537 20.3197 11.9817C20.3636 12.0101 20.4005 12.0487 20.4273 12.0943C20.4574 12.1452 20.4728 12.2038 20.4716 12.2633C20.4723 12.3399 20.4518 12.415 20.4125 12.48C20.3739 12.5437 20.3211 12.5972 20.2586 12.636C20.1929 12.6762 20.1219 12.7061 20.0477 12.7248C19.9747 12.7447 19.8996 12.7549 19.8241 12.7552C19.6762 12.7599 19.53 12.7216 19.4023 12.6447C19.3498 12.6179 19.3053 12.5769 19.2737 12.5262C19.2422 12.4754 19.2246 12.4167 19.2231 12.3565C19.2206 12.3245 19.226 12.2924 19.2389 12.2632C19.2518 12.2341 19.2718 12.2087 19.2969 12.1897C19.3535 12.1529 19.4197 12.1347 19.4867 12.1377C19.4619 12.1924 19.4517 12.253 19.4572 12.3132C19.4634 12.3968 19.5012 12.4746 19.5626 12.5298C19.6025 12.5676 19.6494 12.5967 19.7005 12.6153C19.7516 12.634 19.8059 12.6417 19.86 12.6382C19.913 12.6416 19.9661 12.634 20.0161 12.6157C20.0661 12.5975 20.112 12.569 20.151 12.532C20.1806 12.5064 20.205 12.475 20.2227 12.4397C20.2404 12.4044 20.2512 12.3658 20.2543 12.3262C20.251 12.29 20.2393 12.2553 20.2202 12.2247C20.2012 12.1942 20.1753 12.1688 20.1447 12.1507C20.0473 12.0968 19.9361 12.0749 19.8262 12.0878C19.4663 12.0878 19.2863 12.0156 19.2863 11.8712C19.2859 11.8353 19.297 11.8002 19.318 11.7715C19.3372 11.7438 19.3635 11.7221 19.3939 11.7087C19.4234 11.6957 19.4537 11.6848 19.4846 11.6762C19.5094 11.6687 19.5348 11.6636 19.5605 11.661H19.5921H19.5626L19.4972 11.6263C19.4655 11.6082 19.4364 11.5856 19.4108 11.5592C19.382 11.5276 19.3591 11.4909 19.3433 11.4508C19.3228 11.4016 19.3128 11.3484 19.3138 11.2948C19.3153 11.2049 19.3473 11.1182 19.4044 11.05C19.4543 10.983 19.5205 10.9306 19.5964 10.8983C19.6666 10.8686 19.7418 10.8532 19.8178 10.8528C19.8979 10.853 19.9769 10.8707 20.0498 10.9048C20.1256 10.8738 20.2065 10.8576 20.2881 10.8572C20.3232 10.8538 20.3585 10.8538 20.3935 10.8572C20.4174 10.861 20.4407 10.8676 20.4631 10.8767H20.4842L20.3872 11.0652L20.3535 11.0435C20.3528 11.03 20.349 11.0169 20.3424 11.0052C20.3358 10.9935 20.3266 10.9836 20.3155 10.9763C20.2898 10.9571 20.2587 10.9472 20.2269 10.9482L20.1405 10.9547ZM19.5753 11.2905C19.5696 11.3679 19.5913 11.4449 19.6364 11.5072C19.6565 11.5319 19.6817 11.5517 19.7101 11.5652C19.7386 11.5787 19.7696 11.5855 19.8009 11.5852C19.8342 11.5878 19.8676 11.5823 19.8984 11.5692C19.9292 11.556 19.9565 11.5355 19.9781 11.5093C20.0243 11.4475 20.0468 11.3704 20.0413 11.2927C20.0413 11.089 19.9619 10.9872 19.803 10.9872C19.7714 10.9861 19.7399 10.9928 19.7113 11.0067C19.6827 11.0206 19.6577 11.0414 19.6385 11.0673C19.5937 11.1331 19.5714 11.2124 19.5753 11.2927V11.2905Z" fill="#898989"/>
<path d="M21.0916 11.3382C21.1516 11.3726 21.2018 11.4227 21.2371 11.4833C21.2883 11.5585 21.3341 11.6375 21.3742 11.7195C21.4112 11.7957 21.455 11.8682 21.5049 11.9362C21.5527 12.0012 21.5956 12.0337 21.6336 12.0337V12.077H21.2709L21.2498 12.025L21.1928 11.9037C21.1647 11.8444 21.1366 11.7903 21.1085 11.7412C21.0793 11.6893 21.0469 11.6393 21.0115 11.5917C20.9833 11.5505 20.9491 11.514 20.9102 11.4833V11.9037C20.9101 11.9372 20.9204 11.9698 20.9398 11.9968C20.9465 12.0089 20.9559 12.0192 20.9673 12.0267C20.9787 12.0342 20.9916 12.0389 21.0051 12.0402V12.077H20.5559V12.0402C20.5695 12.0392 20.5826 12.0348 20.5941 12.0272C20.6055 12.0196 20.6149 12.0092 20.6213 11.9968C20.6404 11.9697 20.6507 11.9371 20.6508 11.9037V10.6708C20.651 10.638 20.6406 10.606 20.6213 10.5798C20.6145 10.568 20.605 10.5581 20.5936 10.5509C20.5822 10.5438 20.5693 10.5396 20.5559 10.5387V10.5018L20.906 10.3935V11.2147L21.1169 10.8485H21.4817V10.8853C21.4576 10.8858 21.4338 10.8917 21.4121 10.9027C21.389 10.914 21.3671 10.9278 21.3468 10.9438C21.3234 10.963 21.3022 10.9848 21.2835 11.0088L21.2287 11.0825C21.2132 11.1042 21.197 11.1309 21.1802 11.1627L21.1401 11.2342L21.1085 11.297L21.0916 11.3382Z" fill="#898989"/>
<path d="M21.7011 11.0197C21.7558 10.9615 21.8213 10.9152 21.8937 10.8836C21.9662 10.852 22.0441 10.8357 22.1229 10.8357C22.2016 10.8357 22.2795 10.852 22.352 10.8836C22.4244 10.9152 22.49 10.9615 22.5446 11.0197C22.6566 11.1346 22.7196 11.2904 22.7197 11.453C22.7208 11.5356 22.7059 11.6176 22.6759 11.6943C22.6458 11.7709 22.6012 11.8406 22.5446 11.8993C22.4908 11.9589 22.4255 12.0064 22.3529 12.0389C22.2803 12.0714 22.202 12.0882 22.1229 12.0882C22.0437 12.0882 21.9654 12.0714 21.8928 12.0389C21.8202 12.0064 21.755 11.9589 21.7011 11.8993C21.6445 11.8406 21.5999 11.7709 21.5698 11.6943C21.5398 11.6176 21.5249 11.5356 21.526 11.453C21.5262 11.2904 21.5891 11.1346 21.7011 11.0197ZM21.8909 11.7628C21.9168 11.8017 21.9516 11.8335 21.9922 11.8555C22.0328 11.8775 22.078 11.8889 22.1239 11.8889C22.1698 11.8889 22.215 11.8775 22.2556 11.8555C22.2962 11.8335 22.331 11.8017 22.357 11.7628C22.4196 11.6764 22.4534 11.5716 22.4534 11.4638C22.4534 11.3561 22.4196 11.2512 22.357 11.1648C22.3307 11.1264 22.2958 11.095 22.2552 11.0733C22.2147 11.0517 22.1696 11.0404 22.1239 11.0404C22.0782 11.0404 22.0332 11.0517 21.9926 11.0733C21.952 11.095 21.9171 11.1264 21.8909 11.1648C21.8282 11.2512 21.7944 11.3561 21.7944 11.4638C21.7944 11.5716 21.8282 11.6764 21.8909 11.7628Z" fill="#898989"/>
<path d="M23.3861 10.8333C23.4279 10.8333 23.4696 10.8377 23.5105 10.8463C23.5388 10.851 23.5664 10.859 23.5928 10.8702L23.6181 10.8832L23.5042 11.1648L23.4641 11.1345C23.4645 11.1149 23.4607 11.0955 23.453 11.0775C23.4454 11.0596 23.4341 11.0436 23.4199 11.0305C23.391 11.0021 23.3523 10.9865 23.3123 10.9872C23.253 10.9873 23.1962 11.0115 23.1541 11.0543V11.9058C23.154 11.9393 23.1643 11.972 23.1837 11.999C23.1904 12.0111 23.1998 12.0213 23.2112 12.0289C23.2226 12.0364 23.2355 12.041 23.249 12.0423V12.0792H22.7998V12.0423C22.8134 12.0414 22.8265 12.0369 22.838 12.0294C22.8494 12.0218 22.8588 12.0113 22.8652 11.999C22.8843 11.9719 22.8946 11.9393 22.8947 11.9058V11.1063C22.8949 11.0735 22.8845 11.0415 22.8652 11.0153C22.8584 11.0035 22.8489 10.9936 22.8375 10.9864C22.8261 10.9793 22.8132 10.9751 22.7998 10.9742V10.9373L23.152 10.8268V10.894C23.2232 10.8522 23.3042 10.8312 23.3861 10.8333Z" fill="#898989"/>
<path d="M24.6936 11.9037C24.6936 11.9375 24.7048 11.9704 24.7253 11.9968C24.7325 12.009 24.7423 12.0192 24.754 12.0267C24.7657 12.0342 24.779 12.0389 24.7928 12.0402V12.077H24.3393V12.0402C24.3528 12.0389 24.3658 12.0342 24.3772 12.0267C24.3886 12.0192 24.398 12.0089 24.4047 11.9968C24.4236 11.9712 24.4339 11.9401 24.4342 11.908V11.2407C24.4346 11.19 24.4207 11.1404 24.3942 11.0977C24.3813 11.0765 24.3632 11.0594 24.3417 11.0479C24.3202 11.0365 24.2961 11.0312 24.2719 11.0327C24.2277 11.0323 24.1841 11.0434 24.1453 11.0652C24.1071 11.0863 24.074 11.1159 24.0483 11.1518V11.9037C24.0482 11.9372 24.0585 11.9698 24.0778 11.9968C24.0846 12.0089 24.094 12.0192 24.1054 12.0267C24.1168 12.0342 24.1297 12.0389 24.1432 12.0402V12.077H23.694V12.0402C23.7076 12.0392 23.7207 12.0348 23.7322 12.0272C23.7436 12.0196 23.753 12.0092 23.7594 11.9968C23.7785 11.9697 23.7888 11.9371 23.7889 11.9037V11.1085C23.7892 11.075 23.7789 11.0423 23.7594 11.0153C23.7526 11.0035 23.743 10.9936 23.7317 10.9864C23.7203 10.9793 23.7073 10.9751 23.694 10.9742V10.9373L24.0441 10.8333V10.9222C24.0748 10.8918 24.1112 10.8682 24.1511 10.8529C24.191 10.8376 24.2335 10.831 24.2761 10.8333C24.3254 10.8331 24.3744 10.8404 24.4216 10.855C24.469 10.8702 24.5138 10.8929 24.5545 10.9222C24.5988 10.9546 24.6338 10.9988 24.6557 11.05C24.6826 11.1104 24.6956 11.1764 24.6936 11.2428V11.9037Z" fill="#898989"/>
<path d="M26.7056 10.4325C26.6921 10.4338 26.6791 10.4384 26.6677 10.446C26.6564 10.4535 26.6469 10.4637 26.6402 10.4758C26.6206 10.5011 26.6095 10.5323 26.6086 10.5647V11.9037C26.6081 11.9372 26.6185 11.97 26.6381 11.9968C26.645 12.0085 26.6546 12.0183 26.666 12.0255C26.6773 12.0326 26.6902 12.0369 26.7035 12.038V12.077H26.3513V11.895C26.2257 12.0215 26.0568 12.0923 25.881 12.0922C25.8198 12.093 25.759 12.082 25.7017 12.0597C25.6516 12.0402 25.6057 12.0107 25.5667 11.973C25.5313 11.9375 25.5015 11.8965 25.4782 11.8517C25.4355 11.7728 25.413 11.6841 25.4128 11.5938V10.5647C25.4112 10.5331 25.4001 10.5029 25.3812 10.478C25.3747 10.4655 25.3654 10.4548 25.354 10.4469C25.3426 10.439 25.3295 10.434 25.3158 10.4325V10.4H25.765V10.439C25.7515 10.4403 25.7385 10.4449 25.7271 10.4525C25.7158 10.46 25.7063 10.4703 25.6996 10.4823C25.68 10.5076 25.6689 10.5388 25.668 10.5712V11.596C25.6662 11.6205 25.6662 11.6451 25.668 11.6697C25.6725 11.6966 25.6803 11.7228 25.6912 11.7477C25.7019 11.7751 25.7176 11.8001 25.7376 11.8213C25.7619 11.844 25.7906 11.861 25.8219 11.8712C25.8618 11.8859 25.904 11.8933 25.9464 11.8928C26.0265 11.8834 26.1038 11.8567 26.1732 11.8145C26.2426 11.7724 26.3025 11.7156 26.3492 11.648V10.5647C26.3475 10.5331 26.3365 10.5029 26.3175 10.478C26.3111 10.4655 26.3017 10.4548 26.2903 10.4469C26.2789 10.439 26.2658 10.434 26.2522 10.4325V10.4H26.7014L26.7056 10.4325Z" fill="#898989"/>
<path d="M27.7811 11.9037C27.7811 11.9375 27.7923 11.9704 27.8128 11.9968C27.8199 12.009 27.8298 12.0192 27.8415 12.0267C27.8532 12.0342 27.8665 12.0389 27.8802 12.0402V12.077H27.4184V12.0402C27.4319 12.0389 27.4448 12.0342 27.4562 12.0267C27.4676 12.0192 27.4771 12.0089 27.4838 11.9968C27.5026 11.9712 27.513 11.9401 27.5133 11.908V11.2407C27.5137 11.19 27.4997 11.1404 27.4732 11.0977C27.4604 11.0765 27.4423 11.0594 27.4207 11.0479C27.3992 11.0365 27.3751 11.0312 27.3509 11.0327C27.3067 11.0323 27.2632 11.0434 27.2244 11.0652C27.1861 11.0863 27.153 11.1159 27.1274 11.1518V11.9037C27.1272 11.9372 27.1376 11.9698 27.1569 11.9968C27.1636 12.0089 27.173 12.0192 27.1844 12.0267C27.1958 12.0342 27.2088 12.0389 27.2223 12.0402V12.077H26.7857V12.0402C26.7993 12.0392 26.8124 12.0348 26.8239 12.0272C26.8353 12.0196 26.8447 12.0092 26.8511 11.9968C26.8701 11.9697 26.8805 11.9371 26.8806 11.9037V11.1085C26.8809 11.075 26.8705 11.0423 26.8511 11.0153C26.8443 11.0035 26.8347 10.9936 26.8234 10.9864C26.812 10.9793 26.799 10.9751 26.7857 10.9742V10.9373L27.1379 10.8268V10.9157C27.1681 10.8875 27.2033 10.8658 27.2417 10.8516C27.2801 10.8375 27.3207 10.8313 27.3614 10.8333C27.4107 10.8332 27.4598 10.8405 27.507 10.855C27.5544 10.8702 27.5992 10.8929 27.6398 10.9222C27.6842 10.9546 27.7192 10.9988 27.7411 11.05C27.7679 11.1104 27.7809 11.1764 27.779 11.2428L27.7811 11.9037Z" fill="#898989"/>
<path d="M28.3147 11.9037C28.3142 11.9372 28.3246 11.97 28.3442 11.9968C28.3512 12.0085 28.3607 12.0183 28.3721 12.0255C28.3834 12.0326 28.3963 12.0369 28.4096 12.038V12.077H27.9604V12.038C27.9739 12.0369 27.987 12.0323 27.9984 12.0248C28.0098 12.0172 28.0192 12.0069 28.0258 11.9947C28.0447 11.9683 28.055 11.9364 28.0553 11.9037V11.1128C28.0554 11.08 28.0451 11.048 28.0258 11.0218C28.0189 11.01 28.0094 11.0001 27.998 10.9929C27.9866 10.9858 27.9737 10.9816 27.9604 10.9807V10.9438L28.3126 10.8333L28.3147 11.9037ZM28.1038 10.6752C28.0914 10.6632 28.0815 10.6488 28.0748 10.6328C28.068 10.6167 28.0646 10.5995 28.0646 10.582C28.0646 10.5645 28.068 10.5473 28.0748 10.5312C28.0815 10.5152 28.0914 10.5008 28.1038 10.4888C28.1156 10.4764 28.1297 10.4666 28.1453 10.4599C28.1609 10.4532 28.1776 10.4498 28.1945 10.4498C28.2111 10.4497 28.2275 10.4531 28.2427 10.4598C28.258 10.4665 28.2717 10.4764 28.2831 10.4888C28.307 10.5136 28.3204 10.5471 28.3204 10.582C28.3204 10.6169 28.307 10.6504 28.2831 10.6752C28.2717 10.6876 28.258 10.6975 28.2427 10.7042C28.2275 10.7109 28.2111 10.7143 28.1945 10.7142C28.1765 10.7151 28.1586 10.7121 28.1419 10.7054C28.1252 10.6987 28.11 10.6884 28.0975 10.6752H28.1038Z" fill="#898989"/>
<path d="M28.5783 10.972C28.5696 10.9471 28.5524 10.9263 28.5298 10.9135C28.5085 10.8988 28.4837 10.8906 28.4581 10.8897V10.8485H28.8799V10.8897C28.8721 10.8894 28.8643 10.8908 28.857 10.8938C28.8498 10.8968 28.8432 10.9013 28.8377 10.907C28.8325 10.912 28.8283 10.918 28.8254 10.9247C28.8225 10.9314 28.8209 10.9387 28.8208 10.946C28.8208 10.9778 28.8834 11.2096 29.0085 11.6415C29.1337 11.2082 29.1962 10.9763 29.1962 10.946C29.1962 10.9157 29.1772 10.8969 29.1393 10.8897V10.8485H29.5611V10.8897C29.5348 10.8904 29.5092 10.8987 29.4873 10.9135C29.4647 10.9263 29.4474 10.9471 29.4387 10.972L29.3544 11.2667L29.2047 11.8148L29.1308 12.0813H28.8946C28.8946 12.0813 28.8693 11.9903 28.8208 11.8148L28.6584 11.2667L28.5783 10.972Z" fill="#898989"/>
<path d="M30.141 11.9167C30.2096 11.9164 30.2775 11.9032 30.3414 11.8777C30.3942 11.859 30.4445 11.8335 30.4911 11.8018C30.5248 11.7758 30.5635 11.7441 30.6071 11.7065L30.6893 11.7823L30.6683 11.817C30.6488 11.8436 30.6276 11.869 30.605 11.8928C30.5342 11.9738 30.4429 12.033 30.3414 12.064C30.2735 12.0878 30.2022 12.0995 30.1305 12.0987C30.0489 12.1012 29.9677 12.0861 29.8922 12.0543C29.8166 12.0226 29.7484 11.975 29.6918 11.9145C29.5809 11.7938 29.5191 11.6341 29.5191 11.4682C29.5191 11.3022 29.5809 11.1425 29.6918 11.0218C29.7455 10.962 29.8107 10.9143 29.8834 10.8819C29.956 10.8494 30.0344 10.8329 30.1136 10.8333C30.175 10.8325 30.2361 10.8413 30.295 10.8593C30.3455 10.8743 30.3932 10.8977 30.4363 10.9287C30.4739 10.9566 30.5085 10.9886 30.5396 11.024C30.5678 11.0561 30.5919 11.0918 30.6113 11.1302C30.6282 11.1648 30.6429 11.1966 30.6556 11.2255C30.6652 11.2479 30.673 11.2711 30.6788 11.2948V11.3208C30.3679 11.383 30.0693 11.4979 29.7952 11.661C29.8221 11.732 29.8664 11.7947 29.9238 11.843C29.9841 11.8957 30.062 11.9221 30.141 11.9167ZM30.1284 11.05C30.08 11.049 30.032 11.0594 29.9881 11.0804C29.9442 11.1015 29.9056 11.1326 29.8753 11.1713C29.8074 11.2567 29.7722 11.3645 29.7762 11.4747V11.4833C29.8746 11.4248 29.9776 11.3748 30.0841 11.3338C30.1887 11.2912 30.2966 11.2579 30.4067 11.2342C30.3896 11.1815 30.3563 11.1359 30.3118 11.1042C30.2581 11.066 30.1936 11.047 30.1284 11.05Z" fill="#898989"/>
<path d="M31.3874 10.8333C31.4292 10.8333 31.4709 10.8377 31.5118 10.8463C31.54 10.851 31.5676 10.859 31.5941 10.8702L31.6194 10.8832L31.5055 11.1648L31.4654 11.1345C31.4657 11.1149 31.462 11.0955 31.4543 11.0775C31.4467 11.0596 31.4354 11.0436 31.4211 11.0305C31.3922 11.0021 31.3536 10.9865 31.3136 10.9872C31.2543 10.9873 31.1975 11.0115 31.1554 11.0543V11.9058C31.1553 11.9393 31.1656 11.972 31.1849 11.999C31.1917 12.0111 31.2011 12.0213 31.2125 12.0289C31.2239 12.0364 31.2368 12.041 31.2503 12.0423V12.0792H30.8011V12.0423C30.8147 12.0414 30.8278 12.0369 30.8393 12.0294C30.8507 12.0218 30.8601 12.0113 30.8665 11.999C30.8856 11.9719 30.8959 11.9393 30.896 11.9058V11.1063C30.8962 11.0735 30.8858 11.0415 30.8665 11.0153C30.8597 11.0035 30.8501 10.9936 30.8388 10.9864C30.8274 10.9793 30.8144 10.9751 30.8011 10.9742V10.9373L31.1533 10.8268V10.894C31.2245 10.8523 31.3055 10.8313 31.3874 10.8333Z" fill="#898989"/>
<path d="M32.1023 10.8333C32.1655 10.8334 32.2283 10.8444 32.2879 10.8658C32.3353 10.8809 32.3806 10.902 32.4229 10.9287L32.4651 10.9612L32.3512 11.1778L32.2985 11.154C32.2976 11.1446 32.2976 11.1352 32.2985 11.1258C32.2973 11.11 32.2923 11.0947 32.2838 11.0814C32.2753 11.0682 32.2637 11.0573 32.25 11.05C32.2094 11.0248 32.1623 11.0127 32.115 11.0153C31.9955 11.0153 31.9357 11.0673 31.9357 11.1713C31.9355 11.1843 31.9382 11.1971 31.9437 11.2088C31.9492 11.2205 31.9573 11.2307 31.9674 11.2385C31.9919 11.2581 32.0198 11.2728 32.0496 11.2818L32.1614 11.3143C32.2039 11.3254 32.2455 11.3399 32.2858 11.3577C32.3256 11.3752 32.3632 11.3977 32.3976 11.4248C32.4335 11.455 32.4617 11.4937 32.4798 11.5375C32.502 11.5909 32.5128 11.6485 32.5115 11.7065C32.5121 11.7573 32.4997 11.8073 32.4756 11.8517C32.4537 11.893 32.4235 11.9292 32.387 11.9578C32.3517 11.9847 32.3135 12.0072 32.2732 12.025C32.2372 12.0416 32.1998 12.0547 32.1614 12.064C32.1337 12.0706 32.1054 12.0743 32.077 12.0748C31.9966 12.0761 31.9164 12.0659 31.8387 12.0445C31.7861 12.0322 31.736 12.0102 31.6911 11.9795L31.6489 11.9492L31.7628 11.7043L31.7986 11.7217C31.8002 11.7491 31.8002 11.7766 31.7986 11.804C31.7986 11.817 31.8078 11.8307 31.8261 11.8452C31.8525 11.8632 31.8817 11.8764 31.9125 11.8842C31.9537 11.8961 31.9963 11.9019 32.0391 11.9015C32.0967 11.906 32.1538 11.8882 32.1993 11.8517C32.2154 11.8382 32.2284 11.8214 32.2375 11.8023C32.2466 11.7833 32.2515 11.7624 32.2521 11.7412C32.2525 11.7187 32.2475 11.6964 32.2376 11.6764C32.2277 11.6564 32.2131 11.6392 32.1951 11.6263C32.1528 11.5949 32.1058 11.5708 32.0559 11.5548C32.0011 11.5361 31.947 11.5144 31.8935 11.4898C31.8376 11.4647 31.7894 11.4242 31.7544 11.3728C31.7125 11.3091 31.6925 11.2329 31.6974 11.1562C31.6973 11.1081 31.7088 11.0608 31.7309 11.0184C31.753 10.9761 31.785 10.94 31.8239 10.9135C31.9054 10.8555 32.0034 10.8273 32.1023 10.8333Z" fill="#898989"/>
<path d="M32.9438 11.9037C32.9433 11.9372 32.9537 11.97 32.9733 11.9968C32.9803 12.0085 32.9898 12.0183 33.0012 12.0255C33.0126 12.0326 33.0254 12.0369 33.0387 12.038V12.077H32.5895V12.038C32.603 12.0369 32.6161 12.0323 32.6275 12.0248C32.6389 12.0172 32.6483 12.0069 32.6549 11.9947C32.6738 11.9683 32.6841 11.9364 32.6844 11.9037V11.1128C32.6845 11.08 32.6742 11.048 32.6549 11.0218C32.648 11.01 32.6385 11.0001 32.6271 10.9929C32.6157 10.9858 32.6028 10.9816 32.5895 10.9807V10.9438L32.9438 10.8333V11.9037ZM32.7329 10.6752C32.7205 10.6632 32.7106 10.6488 32.7039 10.6328C32.6972 10.6167 32.6937 10.5995 32.6937 10.582C32.6937 10.5645 32.6972 10.5473 32.7039 10.5312C32.7106 10.5152 32.7205 10.5008 32.7329 10.4888C32.7447 10.4764 32.7588 10.4666 32.7744 10.4599C32.79 10.4532 32.8067 10.4498 32.8236 10.4498C32.8402 10.4497 32.8566 10.4531 32.8718 10.4598C32.8871 10.4665 32.9008 10.4764 32.9122 10.4888C32.9361 10.5136 32.9496 10.5471 32.9496 10.582C32.9496 10.6169 32.9361 10.6504 32.9122 10.6752C32.9008 10.6876 32.8871 10.6975 32.8718 10.7042C32.8566 10.7109 32.8402 10.7143 32.8236 10.7142C32.8056 10.7151 32.7877 10.7121 32.771 10.7054C32.7543 10.6987 32.7391 10.6884 32.7266 10.6752H32.7329Z" fill="#898989"/>
<path d="M33.0619 11.05L33.1336 10.855C33.1749 10.8547 33.2153 10.8419 33.2496 10.8182C33.2825 10.7958 33.3093 10.7652 33.3276 10.7293C33.3449 10.6959 33.3597 10.6611 33.3719 10.6253C33.382 10.5966 33.389 10.5668 33.393 10.5365V10.5018H33.5343V10.8528H33.7937L33.7346 11.0478H33.5237V11.7217C33.5237 11.8574 33.606 11.9253 33.7705 11.9253V12.077H33.5933C33.5504 12.0779 33.5078 12.0699 33.4679 12.0535C33.4281 12.0371 33.3918 12.0127 33.3614 11.9817C33.33 11.9514 33.3052 11.9148 33.2885 11.8741C33.2718 11.8335 33.2636 11.7896 33.2643 11.7455V11.05H33.0619Z" fill="#898989"/>
<path d="M34.42 11.6328C34.5452 11.1995 34.6077 10.9698 34.6077 10.9438C34.608 10.9366 34.6069 10.9295 34.6043 10.9227C34.6018 10.916 34.5979 10.9099 34.593 10.9048C34.5874 10.8994 34.5807 10.8952 34.5735 10.8926C34.5662 10.89 34.5585 10.889 34.5508 10.8897V10.8485H34.9726V10.8897C34.947 10.8906 34.9221 10.8988 34.9009 10.9135C34.8783 10.9263 34.861 10.9471 34.8524 10.972C34.8524 10.972 34.8207 11.0933 34.7554 11.3252L34.5613 12.025C34.4953 12.259 34.4566 12.3941 34.4454 12.4302C34.4321 12.4799 34.4092 12.5264 34.3779 12.5667C34.3489 12.6016 34.3147 12.6316 34.2766 12.6555C34.2439 12.6748 34.2101 12.6922 34.1754 12.7075C34.149 12.7199 34.1215 12.7293 34.0932 12.7357H34.0636V12.649L34.0889 12.6295C34.1077 12.6119 34.1247 12.5923 34.1396 12.571C34.1622 12.5417 34.18 12.5087 34.1923 12.4735C34.2162 12.3998 34.2541 12.2677 34.3062 12.077C34.3062 12.077 34.2028 11.7065 33.9983 10.972C33.99 10.9475 33.9735 10.9268 33.9519 10.9135C33.9307 10.8986 33.9058 10.8903 33.8802 10.8897V10.8485H34.3019V10.8897C34.2943 10.889 34.2865 10.89 34.2793 10.8926C34.272 10.8952 34.2654 10.8994 34.2598 10.9048C34.2548 10.9099 34.2509 10.916 34.2484 10.9227C34.2459 10.9295 34.2447 10.9366 34.245 10.9438C34.2574 11.0074 34.2729 11.0703 34.2914 11.1323C34.3223 11.2479 34.3533 11.3606 34.3842 11.4703L34.42 11.6328Z" fill="#898989"/>
<path d="M3.79835 3.44717L1.59662 8.64717V9.22133L1.99099 8.788L3.85951 3.46667L3.79835 3.44717Z" fill="#DE5C8E"/>
<path d="M3.63174 3.3605L1.17694 7.8L1.05674 8.42833L1.50172 7.995L3.69712 3.40167L3.63174 3.3605Z" fill="#DE5C8E"/>
<path d="M3.50732 3.26083L0.833189 6.75567L0.592771 7.423L1.13055 7.05683L3.5516 3.29983L3.50732 3.26083Z" fill="#DE5C8E"/>
<path d="M3.37656 3.12L0.599097 5.746L0.388204 6.30067L0.845843 6.1165L3.4335 3.18283L3.37656 3.12Z" fill="#DE5C8E"/>
<path d="M3.2922 2.9705L0.634949 4.65833L0.346026 5.09167L0.767812 5.02233L3.34071 3.05067C3.31962 3.03333 3.30486 2.9965 3.2922 2.9705Z" fill="#DE5C8E"/>
<path d="M3.22894 2.81667L0.757267 3.7765L0.424056 4.11667L0.896457 4.09067L3.26057 2.88167C3.24581 2.86217 3.23737 2.83617 3.22894 2.81667Z" fill="#DE5C8E"/>
<path d="M3.19308 2.63467L1.01245 2.9965L0.634949 3.23267L1.05674 3.315L3.20152 2.70833C3.19941 2.6845 3.19519 2.66067 3.19308 2.63467Z" fill="#DE5C8E"/>
<path d="M1.23389 2.36383L0.947071 2.48083L1.23389 2.6L3.18465 2.51117C3.18465 2.4895 3.18465 2.46783 3.18465 2.44833L1.23389 2.36383Z" fill="#DE5C8E"/>
<path d="M1.28239 1.99117L1.58186 2.1645L3.20363 2.34C3.20363 2.314 3.20363 2.288 3.2205 2.26417L1.63669 1.911L1.28239 1.99117Z" fill="#DE5C8E"/>
<path d="M1.97834 1.495H1.60717L1.88555 1.73333L3.25635 2.16667L3.28166 2.106L1.97834 1.495Z" fill="#DE5C8E"/>
<path d="M2.26937 1.13317L2.0163 1.11583L2.14073 1.3325L3.34493 1.97167L3.37656 1.92833L2.26937 1.13317Z" fill="#DE5C8E"/>
<path d="M2.64687 0.866667L2.3938 0.806L2.46761 1.05083L3.45248 1.83517L3.49677 1.78967L2.64687 0.866667Z" fill="#DE5C8E"/>
<path d="M3.58745 1.70733L3.6444 1.66833L3.01172 0.611L2.77341 0.496167L2.80926 0.767L3.58745 1.70733Z" fill="#DE5C8E"/>
<path d="M3.82576 1.5795L3.40398 0.403L3.19308 0.255667L3.17199 0.5135L3.76039 1.59683L3.82576 1.5795Z" fill="#DE5C8E"/>
<path d="M3.95863 1.53617L4.02822 1.51667L3.85318 0.288167L3.67814 0.0996667L3.61487 0.355333L3.95863 1.53617Z" fill="#DE5C8E"/>
<path d="M4.20326 1.50583H4.23911L4.32347 0.229667L4.20326 0L4.08305 0.216667L4.16952 1.51667L4.20326 1.50583Z" fill="#DE5C8E"/>
<path d="M4.62083 3.44717L4.54913 3.4775L6.42819 8.77283L6.82256 9.20617V8.6385L4.62083 3.44717Z" fill="#DE5C8E"/>
<path d="M4.77689 3.3605L4.71152 3.40167L6.89848 7.99283L7.34346 8.42617L7.23169 7.8L4.77689 3.3605Z" fill="#DE5C8E"/>
<path d="M4.90132 3.26083L4.85703 3.29983L7.27809 7.05683L7.80532 7.423L7.56701 6.75567L4.90132 3.26083Z" fill="#DE5C8E"/>
<path d="M7.57123 6.1165L8.01832 6.30067L7.80743 5.746L5.02785 3.12L4.97513 3.18283L7.57123 6.1165Z" fill="#DE5C8E"/>
<path d="M7.64715 5.018L8.06894 5.08733L7.78001 4.654L5.11643 2.9705C5.10378 2.9965 5.08901 3.0225 5.07425 3.04633L7.64715 5.018Z" fill="#DE5C8E"/>
<path d="M7.5185 4.095L7.99091 4.121L7.64926 3.7765L5.1797 2.81667C5.1797 2.84483 5.16283 2.86867 5.15439 2.8925L7.5185 4.095Z" fill="#DE5C8E"/>
<path d="M7.76314 3.23267L7.39619 2.9965L5.21555 2.63467C5.21555 2.66067 5.21555 2.6845 5.20501 2.70833L7.34979 3.315L7.76314 3.23267Z" fill="#DE5C8E"/>
<path d="M7.17264 2.6L7.46156 2.4765L7.17264 2.36383L5.21766 2.45267C5.21766 2.47433 5.21766 2.496 5.21766 2.5155L7.17264 2.6Z" fill="#DE5C8E"/>
<path d="M6.77194 1.911L5.18813 2.26417C5.18813 2.288 5.19868 2.31183 5.20501 2.34L6.82677 2.16667L7.12624 1.99333L6.77194 1.911Z" fill="#DE5C8E"/>
<path d="M6.43029 1.495L5.12697 2.09083L5.15228 2.1515L6.52309 1.71817L6.79936 1.495H6.43029Z" fill="#DE5C8E"/>
<path d="M6.13926 1.13317L5.02996 1.92833L5.06582 1.98033L6.27002 1.34333L6.39444 1.12667L6.13926 1.13317Z" fill="#DE5C8E"/>
<path d="M5.76176 0.866667L4.91819 1.7875L4.96248 1.833L5.94735 1.04867L6.02116 0.803833L5.76176 0.866667Z" fill="#DE5C8E"/>
<path d="M4.81485 1.70733L5.60148 0.764833L5.63734 0.494L5.39903 0.608833L4.76635 1.66617L4.81485 1.70733Z" fill="#DE5C8E"/>
<path d="M4.58287 1.5795L4.64192 1.60333L5.23031 0.52L5.20922 0.262167L4.99833 0.4095L4.58287 1.5795Z" fill="#DE5C8E"/>
<path d="M4.45001 1.53617L4.79376 0.355333L4.7305 0.0996667L4.55756 0.2925L4.38041 1.51667L4.45001 1.53617Z" fill="#DE5C8E"/>
<path d="M3.60222 10.4303C3.69683 10.3599 3.78193 10.2768 3.85529 10.1833C3.81046 10.1266 3.77938 10.0598 3.7646 9.98833C3.72453 10.0252 3.67814 10.0642 3.62752 10.1032C3.62121 10.1083 3.61341 10.111 3.60538 10.111C3.59735 10.111 3.58955 10.1083 3.58324 10.1032C3.53262 10.0642 3.48833 10.0273 3.44616 9.98833C3.43138 10.0598 3.4003 10.1266 3.35547 10.1833C3.4269 10.2764 3.50985 10.3594 3.60222 10.4303Z" fill="#DE5C8E"/>
<path d="M2.1112 10.1443C2.18919 10.2545 2.28389 10.351 2.39169 10.4303C2.49075 10.3607 2.58014 10.2777 2.65742 10.1833C2.61259 10.1266 2.58151 10.0598 2.56673 9.98833C2.52666 10.0252 2.48027 10.0642 2.42965 10.1032C2.42334 10.1083 2.41554 10.111 2.40751 10.111C2.39948 10.111 2.39168 10.1083 2.38536 10.1032C2.33475 10.0642 2.28835 10.0273 2.24828 9.98833C2.20611 10.0391 2.15539 10.0817 2.09855 10.114L2.11753 10.14L2.1112 10.1443Z" fill="#DE5C8E"/>
<path d="M3.37656 9.96667C3.37674 9.94851 3.37239 9.9306 3.36391 9.91467H3.25213C3.24366 9.9306 3.2393 9.94851 3.23948 9.96667C3.24939 10.0232 3.27337 10.0762 3.30908 10.1205C3.34403 10.076 3.36727 10.023 3.37656 9.96667Z" fill="#DE5C8E"/>
<path d="M3.97128 9.96667C3.97146 9.94851 3.9671 9.9306 3.95863 9.91467H3.84685C3.83838 9.9306 3.83402 9.94851 3.8342 9.96667C3.84411 10.0232 3.86808 10.0762 3.90379 10.1205C3.93875 10.076 3.96199 10.023 3.97128 9.96667Z" fill="#DE5C8E"/>
<path d="M2.7713 9.96667C2.77148 9.94851 2.76712 9.9306 2.75864 9.91467H2.64687C2.63839 9.9306 2.63404 9.94851 2.63422 9.96667C2.64413 10.0232 2.6681 10.0762 2.70381 10.1205C2.73876 10.076 2.762 10.023 2.7713 9.96667Z" fill="#DE5C8E"/>
<path d="M3.00117 10.4303C3.09651 10.36 3.18232 10.2769 3.25635 10.1833C3.21153 10.1266 3.18045 10.0598 3.16567 9.98833C3.11716 10.0338 3.06866 10.0707 3.02859 10.101C3.02227 10.1061 3.01447 10.1089 3.00644 10.1089C2.99841 10.1089 2.99062 10.1061 2.9843 10.101C2.93369 10.062 2.8894 10.0252 2.84722 9.98617C2.82905 10.0596 2.79356 10.1273 2.74388 10.1833C2.81854 10.2771 2.90507 10.3602 3.00117 10.4303Z" fill="#DE5C8E"/>
<path d="M4.20115 10.4303C4.29649 10.36 4.3823 10.2769 4.45633 10.1833C4.41151 10.1266 4.38043 10.0598 4.36565 9.98833C4.31714 10.0338 4.26864 10.0707 4.22857 10.101C4.22225 10.1061 4.21446 10.1089 4.20643 10.1089C4.1984 10.1089 4.1906 10.1061 4.18428 10.101C4.13367 10.062 4.08938 10.0252 4.0472 9.98617C4.03242 10.0576 4.00134 10.1245 3.95652 10.1812C4.02714 10.2748 4.10938 10.3586 4.20115 10.4303Z" fill="#DE5C8E"/>
<path d="M6.00007 10.4303C6.10787 10.351 6.20257 10.2545 6.28056 10.1443V10.1313L6.29954 10.101C6.24319 10.0689 6.19313 10.0262 6.15192 9.97533C6.10974 10.0143 6.06334 10.0533 6.01062 10.0923C6.0043 10.0974 5.9965 10.1002 5.98847 10.1002C5.98044 10.1002 5.97265 10.0974 5.96633 10.0923C5.92626 10.062 5.87775 10.023 5.82925 9.97967C5.81447 10.0511 5.78339 10.118 5.73857 10.1747C5.81397 10.2718 5.90195 10.3578 6.00007 10.4303Z" fill="#DE5C8E"/>
<path d="M5.7702 9.96667C5.77038 9.94851 5.76602 9.9306 5.75755 9.91467H5.64577C5.6373 9.9306 5.63294 9.94851 5.63312 9.96667C5.64303 10.0232 5.667 10.0762 5.70271 10.1205C5.73767 10.076 5.7609 10.023 5.7702 9.96667Z" fill="#DE5C8E"/>
<path d="M6.61166 10.231L6.47037 10.1833C6.47037 10.1833 6.42186 10.1617 6.37546 10.1357L6.35226 10.1703V10.1833C6.26297 10.3073 6.15472 10.4156 6.03171 10.504C6.02539 10.5091 6.01759 10.5119 6.00956 10.5119C6.00153 10.5119 5.99373 10.5091 5.98742 10.504C5.87999 10.4305 5.78218 10.3431 5.69639 10.244C5.61608 10.3435 5.52397 10.4323 5.42223 10.5083C5.41591 10.5134 5.40811 10.5162 5.40008 10.5162C5.39205 10.5162 5.38425 10.5134 5.37794 10.5083C5.27471 10.4326 5.18118 10.3438 5.09956 10.244C5.01794 10.3438 4.92441 10.4326 4.82118 10.5083C4.81486 10.5134 4.80707 10.5162 4.79904 10.5162C4.79101 10.5162 4.78321 10.5134 4.77689 10.5083C4.67366 10.4326 4.58013 10.3438 4.49851 10.244C4.4169 10.3438 4.32337 10.4326 4.22013 10.5083C4.21382 10.5134 4.20602 10.5162 4.19799 10.5162C4.18996 10.5162 4.18216 10.5134 4.17585 10.5083C4.07261 10.4326 3.97908 10.3438 3.89747 10.244C3.81585 10.3438 3.72232 10.4326 3.61909 10.5083C3.61277 10.5134 3.60497 10.5162 3.59694 10.5162C3.58891 10.5162 3.58112 10.5134 3.5748 10.5083C3.47157 10.4326 3.37804 10.3438 3.29642 10.244C3.2148 10.3438 3.12128 10.4326 3.01804 10.5083C3.01173 10.5134 3.00393 10.5162 2.9959 10.5162C2.98787 10.5162 2.98007 10.5134 2.97376 10.5083C2.87052 10.4326 2.77699 10.3438 2.69538 10.244C2.61376 10.3438 2.52023 10.4326 2.417 10.5083C2.41068 10.5134 2.40288 10.5162 2.39485 10.5162C2.38682 10.5162 2.37902 10.5134 2.37271 10.5083C2.25237 10.4179 2.14699 10.3082 2.06059 10.1833V10.1703L2.0395 10.1378C1.98677 10.166 1.94671 10.1855 1.94671 10.1855L1.80962 10.2288C1.25919 10.4217 0.9302 10.6882 0.845843 11.0088H7.57966C7.48476 10.6882 7.15788 10.4217 6.61166 10.231Z" fill="#DE5C8E"/>
<path d="M4.57022 9.96667C4.5704 9.94851 4.56604 9.9306 4.55756 9.91467H4.44579C4.43658 9.9304 4.43149 9.94831 4.43103 9.96667C4.44094 10.0232 4.46491 10.0762 4.50062 10.1205C4.53633 10.0762 4.56031 10.0232 4.57022 9.96667Z" fill="#DE5C8E"/>
<path d="M4.8022 10.4303C4.89979 10.3605 4.98775 10.2774 5.06371 10.1833C5.01888 10.1266 4.9878 10.0598 4.97302 9.98833C4.93295 10.0252 4.88656 10.0642 4.83594 10.1032C4.82963 10.1083 4.82183 10.111 4.8138 10.111C4.80577 10.111 4.79797 10.1083 4.79165 10.1032C4.74104 10.0642 4.69675 10.0273 4.65457 9.98833C4.63979 10.0598 4.60871 10.1266 4.56389 10.1833C4.63272 10.2758 4.71281 10.3588 4.8022 10.4303Z" fill="#DE5C8E"/>
<path d="M5.17126 9.96667C5.17144 9.94851 5.16709 9.9306 5.15861 9.91467H5.04684C5.03836 9.9306 5.034 9.94851 5.03418 9.96667C5.04409 10.0232 5.06807 10.0762 5.10378 10.1205C5.13873 10.076 5.16197 10.023 5.17126 9.96667Z" fill="#DE5C8E"/>
<path d="M5.40114 10.4303C5.49647 10.36 5.58229 10.2769 5.65632 10.1833C5.61149 10.1266 5.58041 10.0598 5.56563 9.98833C5.52556 10.0252 5.47917 10.0642 5.42855 10.1032C5.42224 10.1083 5.41444 10.111 5.40641 10.111C5.39838 10.111 5.39058 10.1083 5.38426 10.1032C5.33365 10.0642 5.28936 10.0273 5.24718 9.98833C5.2324 10.0598 5.20132 10.1266 5.1565 10.1833C5.22728 10.2762 5.30951 10.3592 5.40114 10.4303Z" fill="#DE5C8E"/>
<path d="M1.79697 12.1918C2.57721 12.4268 3.38839 12.5349 4.20115 12.5125C5.01462 12.5352 5.82653 12.427 6.60745 12.1918C7.15788 11.999 7.48687 11.739 7.57123 11.4183H0.845843C0.923873 11.7368 1.25076 12.0012 1.79697 12.1918Z" fill="#DE5C8E"/>
<path d="M0.816317 11.31C0.809471 11.2561 0.809471 11.2014 0.816317 11.1475H7.59443C7.60127 11.2014 7.60127 11.2561 7.59443 11.31H0.816317Z" fill="#DE5C8E"/>
<path d="M0.343917 10.5625C0.408734 10.5685 0.469955 10.5958 0.518555 10.6402C0.567156 10.6847 0.600566 10.744 0.61386 10.8095C0.636241 10.8892 0.630259 10.9744 0.596988 11.05C0.583344 11.0812 0.563265 11.109 0.53814 11.1314C0.513015 11.1539 0.483444 11.1705 0.451472 11.18C0.433273 11.1825 0.41484 11.1825 0.39664 11.18C0.333237 11.1746 0.273073 11.149 0.224639 11.1066C0.176204 11.0642 0.141945 11.0073 0.126697 10.9438C0.104453 10.8632 0.11119 10.7771 0.145677 10.7012C0.159321 10.67 0.1794 10.6422 0.204525 10.6197C0.22965 10.5973 0.259221 10.5807 0.291193 10.5712C0.309393 10.5687 0.327826 10.5687 0.346026 10.5712M0.346026 10.4563C0.318267 10.4562 0.290617 10.4599 0.263777 10.4672C0.166675 10.5022 0.0867396 10.5748 0.0410332 10.6695C-0.0046732 10.7642 -0.0125296 10.8736 0.0191411 10.9742C0.0398413 11.0633 0.0875375 11.1435 0.15537 11.203C0.223202 11.2626 0.307675 11.2985 0.39664 11.3057C0.424398 11.3058 0.452049 11.3021 0.478888 11.2948C0.577079 11.2594 0.65767 11.1856 0.703099 11.0894C0.748527 10.9932 0.755111 10.8825 0.721416 10.7813C0.700715 10.6922 0.653019 10.612 0.585187 10.5525C0.517355 10.4929 0.432882 10.457 0.343917 10.4498L0.346026 10.4563Z" fill="#DE5C8E"/>
<path d="M0.559028 11.3035C0.570155 11.3011 0.581644 11.3011 0.592771 11.3035C0.611748 11.3154 0.627616 11.3319 0.639006 11.3515C0.650396 11.3712 0.656965 11.3933 0.658148 11.4162C0.66777 11.5007 0.653877 11.5864 0.618078 11.6632C0.598354 11.7175 0.565591 11.7659 0.522825 11.8038C0.480059 11.8416 0.428677 11.8678 0.373442 11.8798C0.362315 11.8822 0.350826 11.8822 0.339699 11.8798C0.320722 11.8679 0.304854 11.8514 0.293464 11.8318C0.282074 11.8122 0.275504 11.79 0.274322 11.7672C0.264699 11.6826 0.278592 11.597 0.314392 11.5202C0.334115 11.4658 0.366879 11.4175 0.409644 11.3796C0.45241 11.3417 0.503793 11.3155 0.559028 11.3035ZM0.559028 11.1887C0.480712 11.2007 0.407095 11.2346 0.346137 11.2865C0.285179 11.3384 0.239197 11.4065 0.213163 11.4833C0.118261 11.7 0.154113 11.9297 0.293302 11.9947C0.31849 12.0063 0.345826 12.0122 0.373442 12.012C0.451516 12.0001 0.524965 11.9666 0.5859 11.9151C0.646836 11.8635 0.692956 11.7959 0.719307 11.7195C0.814209 11.5028 0.778357 11.2732 0.639167 11.2082C0.613979 11.1965 0.586644 11.1906 0.559028 11.1908V11.1887Z" fill="#DE5C8E"/>
<path d="M0.542156 11.4292C0.649312 11.4292 0.736178 11.3399 0.736178 11.2298C0.736178 11.1197 0.649312 11.0305 0.542156 11.0305C0.435001 11.0305 0.348135 11.1197 0.348135 11.2298C0.348135 11.3399 0.435001 11.4292 0.542156 11.4292Z" fill="#DE5C8E"/>
<path d="M0.77203 11.505H0.698217V12.1247H0.77203V11.505Z" fill="#DE5C8E"/>
<path d="M0.919655 12.2373C0.930486 12.2256 0.936527 12.2101 0.936527 12.194C0.936084 12.1807 0.931667 12.1678 0.923873 12.1572L0.734069 11.9167L0.546374 12.1615C0.537246 12.1732 0.532066 12.1877 0.531612 12.2027C0.531612 12.2188 0.537653 12.2343 0.548483 12.246L0.919655 12.2373Z" fill="#DE5C8E"/>
<path d="M0.936527 12.1875H0.531612V13H0.936527V12.1875Z" fill="#DE5C8E"/>
<path d="M8.06472 10.5625C8.08292 10.56 8.10135 10.56 8.11955 10.5625C8.15152 10.572 8.18109 10.5886 8.20622 10.6111C8.23134 10.6335 8.25142 10.6613 8.26507 10.6925C8.29955 10.7684 8.30629 10.8546 8.28405 10.9352C8.27248 11.0019 8.2401 11.0629 8.19177 11.109C8.14345 11.1552 8.08183 11.1839 8.01621 11.1908C7.99801 11.1933 7.97958 11.1933 7.96138 11.1908C7.92643 11.1816 7.8941 11.164 7.86698 11.1396C7.83987 11.1151 7.81875 11.0844 7.80532 11.05C7.77083 10.9741 7.76409 10.8879 7.78634 10.8073C7.79963 10.7419 7.83304 10.6825 7.88164 10.6381C7.93024 10.5936 7.99146 10.5664 8.05628 10.5603M8.05628 10.4455C7.96732 10.4526 7.88284 10.4886 7.81501 10.5481C7.74718 10.6077 7.69948 10.6878 7.67878 10.777C7.64509 10.8782 7.65167 10.9889 7.6971 11.0851C7.74253 11.1813 7.82312 11.2551 7.92131 11.2905C7.94815 11.2978 7.9758 11.3014 8.00356 11.3013C8.09252 11.2942 8.177 11.2583 8.24483 11.1987C8.31266 11.1391 8.36036 11.059 8.38106 10.9698C8.41475 10.8687 8.40817 10.7579 8.36274 10.6618C8.31731 10.5656 8.23672 10.4917 8.13853 10.4563C8.11169 10.4491 8.08404 10.4454 8.05628 10.4455Z" fill="#DE5C8E"/>
<path d="M7.84961 11.3035C7.90484 11.3155 7.95622 11.3417 7.99899 11.3796C8.04176 11.4175 8.07452 11.4658 8.09424 11.5202C8.16806 11.6848 8.14064 11.8473 8.06894 11.8798C8.05782 11.8823 8.04631 11.8823 8.03519 11.8798C7.97996 11.8678 7.92858 11.8416 7.88581 11.8038C7.84304 11.7659 7.81028 11.7175 7.79056 11.6632C7.75476 11.5864 7.74086 11.5007 7.75049 11.4162C7.75167 11.3933 7.75824 11.3712 7.76963 11.3515C7.78102 11.3319 7.79689 11.3154 7.81586 11.3035C7.82699 11.3011 7.83848 11.3011 7.84961 11.3035ZM7.84961 11.1887C7.82199 11.1885 7.79466 11.1944 7.76947 11.206C7.63028 11.271 7.59443 11.4985 7.68933 11.7173C7.71568 11.7938 7.7618 11.8614 7.82273 11.9129C7.88367 11.9644 7.95712 11.998 8.03519 12.0098C8.06281 12.01 8.09014 12.0041 8.11533 11.9925C8.25452 11.9275 8.29037 11.7 8.19547 11.4812C8.16912 11.4047 8.123 11.3371 8.06207 11.2856C8.00113 11.2341 7.92768 11.2005 7.84961 11.1887Z" fill="#DE5C8E"/>
<path d="M7.86648 11.4292C7.97363 11.4292 8.0605 11.3399 8.0605 11.2298C8.0605 11.1197 7.97363 11.0305 7.86648 11.0305C7.75932 11.0305 7.67246 11.1197 7.67246 11.2298C7.67246 11.3399 7.75932 11.4292 7.86648 11.4292Z" fill="#DE5C8E"/>
<path d="M7.71042 11.505H7.6366V12.1247H7.71042V11.505Z" fill="#DE5C8E"/>
<path d="M7.48898 12.2373C7.47815 12.2256 7.47211 12.2101 7.47211 12.194C7.47255 12.1807 7.47697 12.1678 7.48476 12.1572L7.67457 11.9167L7.86226 12.1615C7.87139 12.1732 7.87657 12.1877 7.87702 12.2027C7.87702 12.2188 7.87098 12.2343 7.86015 12.246L7.48898 12.2373Z" fill="#DE5C8E"/>
<path d="M7.47211 13H7.87702V12.1875H7.47211V13Z" fill="#DE5C8E"/>
<path d="M5.0152 8.26367C5.01557 8.40541 5.06834 8.54172 5.16283 8.645C5.26254 8.75344 5.32415 8.89299 5.33787 9.0415H3.06233C3.07652 8.89312 3.13806 8.75372 3.23737 8.645C3.3315 8.54148 3.38421 8.40533 3.385 8.26367H5.0152ZM5.08901 8.18783H3.31118V8.2485C3.31369 8.37513 3.26833 8.49783 3.18465 8.59083C3.05296 8.73234 2.9777 8.91943 2.97376 9.11517H5.41801C5.41406 8.91943 5.33881 8.73234 5.20711 8.59083C5.12324 8.49795 5.07785 8.37517 5.08058 8.2485V8.18783H5.08901Z" fill="#DE5C8E"/>
<path d="M4.20326 2.3075C4.24455 2.31086 4.28296 2.3305 4.31046 2.36232C4.33795 2.39413 4.3524 2.43565 4.35076 2.47816C4.34913 2.52067 4.33154 2.56088 4.30168 2.59037C4.27183 2.61985 4.23202 2.63632 4.19061 2.63632C4.1492 2.63632 4.10939 2.61985 4.07954 2.59037C4.04968 2.56088 4.03209 2.52067 4.03046 2.47816C4.02882 2.43565 4.04326 2.39413 4.07076 2.36232C4.09826 2.3305 4.13667 2.31086 4.17796 2.3075H4.19694M4.22013 2.23167H4.17796C4.11771 2.2367 4.0617 2.26548 4.02164 2.31198C3.98159 2.35847 3.96058 2.41909 3.96304 2.48113C3.96549 2.54318 3.9912 2.60184 4.0348 2.64485C4.0784 2.68786 4.1365 2.71187 4.19694 2.71187C4.25738 2.71187 4.31547 2.68786 4.35907 2.64485C4.40267 2.60184 4.42838 2.54318 4.43083 2.48113C4.43329 2.41909 4.41229 2.35847 4.37223 2.31198C4.33217 2.26548 4.27616 2.2367 4.21592 2.23167H4.22013Z" fill="#DE5C8E"/>
<path d="M4.27075 3.00517V3.31283C4.27008 3.38527 4.27431 3.45767 4.2834 3.5295L4.43525 4.78617H3.96495L4.11891 3.5295C4.11891 3.47533 4.13156 3.328 4.12945 3.31283V3.00517H4.27075ZM4.34456 2.92933H4.05564V3.315C4.05564 3.3345 4.05564 3.4775 4.04509 3.53167L3.8827 4.87283H4.51538L4.353 3.53167C4.34436 3.4598 4.34083 3.38739 4.34245 3.315V2.92933H4.34456Z" fill="#DE5C8E"/>
<path d="M4.62294 6.30933L4.74526 6.903V6.92683L4.77689 6.9745C4.84175 7.07529 4.87958 7.19188 4.88656 7.3125H3.50732C3.51468 7.19196 3.55248 7.07547 3.61698 6.9745L3.64861 6.92467V6.90083L3.77093 6.30933H4.6145M4.67355 6.2335H3.72243L3.58745 6.8835L3.55793 6.929C3.4723 7.06511 3.42755 7.22411 3.42928 7.38617H4.97724C4.97952 7.226 4.93628 7.06863 4.85281 6.93333L4.82329 6.89L4.68832 6.24L4.67355 6.2335Z" fill="#DE5C8E"/>
<path d="M4.44157 5.07C4.43995 5.15044 4.45964 5.22982 4.49851 5.29967V5.31483C4.52675 5.3535 4.54686 5.39776 4.55756 5.44483V5.70917H3.8342V5.447C3.84432 5.40012 3.8637 5.35588 3.89114 5.317L3.90169 5.29967C3.94046 5.22978 3.96014 5.15043 3.95863 5.07H4.44368M3.8827 4.98333V5.057C3.88494 5.12419 3.86965 5.19076 3.83842 5.24983C3.80006 5.30328 3.77344 5.36463 3.76039 5.42967V5.77633H4.64192V5.42967C4.62837 5.36441 4.60101 5.30302 4.56178 5.24983C4.53045 5.1908 4.51515 5.1242 4.51749 5.057V4.98333H3.8827Z" fill="#DE5C8E"/>
<path d="M4.19904 5.55533C4.27708 5.55533 4.34034 5.49034 4.34034 5.41017C4.34034 5.32999 4.27708 5.265 4.19904 5.265C4.12101 5.265 4.05775 5.32999 4.05775 5.41017C4.05775 5.49034 4.12101 5.55533 4.19904 5.55533Z" fill="#DE5C8E"/>
<path d="M4.19904 6.682C4.27708 6.682 4.34034 6.61701 4.34034 6.53683C4.34034 6.45666 4.27708 6.39167 4.19904 6.39167C4.12101 6.39167 4.05775 6.45666 4.05775 6.53683C4.05775 6.61701 4.12101 6.682 4.19904 6.682Z" fill="#DE5C8E"/>
<path d="M4.7073 5.95833C4.71385 5.95883 4.72001 5.96173 4.72465 5.96651C4.72929 5.97128 4.73212 5.9776 4.7326 5.98433V5.9995C4.73212 6.00623 4.72929 6.01256 4.72465 6.01733C4.72001 6.0221 4.71385 6.025 4.7073 6.0255H3.69501C3.68846 6.025 3.6823 6.0221 3.67766 6.01733C3.67301 6.01256 3.67019 6.00623 3.6697 5.9995V5.98433C3.67019 5.9776 3.67301 5.97128 3.67766 5.96651C3.6823 5.96173 3.68846 5.95883 3.69501 5.95833H4.7073ZM4.7073 5.8825H3.69501C3.66889 5.88305 3.64399 5.89396 3.62552 5.91294C3.60704 5.93192 3.59643 5.9575 3.59589 5.98433V5.9995C3.59643 6.02633 3.60704 6.05192 3.62552 6.07089C3.64399 6.08987 3.66889 6.10078 3.69501 6.10133H4.7073C4.73342 6.10078 4.75832 6.08987 4.77679 6.07089C4.79526 6.05192 4.80588 6.02633 4.80642 5.9995V5.98433C4.80588 5.9575 4.79526 5.93192 4.77679 5.91294C4.75832 5.89396 4.73342 5.88305 4.7073 5.8825Z" fill="#DE5C8E"/>
<path d="M3.98815 9.11733H3.21839L3.20574 9.1C3.17716 9.0664 3.16142 9.02329 3.16145 8.97867C3.16275 8.93804 3.17598 8.89876 3.19941 8.866L3.60222 8.281L4.00924 8.88333C4.02881 8.91359 4.03977 8.94886 4.04087 8.98517C4.04287 9.02597 4.03175 9.06632 4.00924 9.1L3.98815 9.11733ZM3.25213 9.0415H3.9523C3.96337 9.02412 3.96924 9.00378 3.96917 8.983C3.96843 8.96136 3.96186 8.94036 3.95019 8.92233L3.60222 8.4175L3.26057 8.91367C3.24555 8.93364 3.23673 8.9578 3.23526 8.983C3.23582 9.004 3.24242 9.02436 3.25424 9.0415H3.25213Z" fill="#DE5C8E"/>
<path d="M4.58498 9.11733H3.81522L3.79835 9.1C3.76993 9.0663 3.75422 9.02325 3.75406 8.97867C3.75536 8.93804 3.76859 8.89876 3.79202 8.866L4.19483 8.281L4.61029 8.88333C4.62986 8.91359 4.64081 8.94886 4.64192 8.98517C4.64195 9.02979 4.62621 9.0729 4.59763 9.1065L4.58498 9.11733ZM3.84896 9.0415H4.54913C4.5602 9.02412 4.56607 9.00378 4.566 8.983C4.56526 8.96136 4.55869 8.94036 4.54702 8.92233L4.19904 8.4175L3.8574 8.91367C3.84238 8.93364 3.83356 8.9578 3.83209 8.983C3.83214 9.00376 3.838 9.02406 3.84896 9.0415Z" fill="#DE5C8E"/>
<path d="M5.18181 9.11733H4.40994L4.39939 9.1C4.37081 9.0664 4.35507 9.02329 4.35511 8.97867C4.35641 8.93804 4.36964 8.89876 4.39307 8.866L4.79587 8.281L5.20711 8.88333C5.22669 8.91359 5.23764 8.94886 5.23875 8.98517C5.23859 9.02975 5.22288 9.0728 5.19446 9.1065L5.18181 9.11733ZM4.44579 9.0415H5.14596C5.15692 9.02406 5.16277 9.00376 5.16283 8.983C5.16209 8.96136 5.15552 8.94036 5.14385 8.92233L4.79587 8.4175L4.45423 8.91367C4.4392 8.93364 4.43039 8.9578 4.42892 8.983C4.42885 9.00378 4.43472 9.02412 4.44579 9.0415Z" fill="#DE5C8E"/>
<path d="M3.24581 6.54117C3.27929 6.57635 3.30011 6.6222 3.30486 6.67117C3.30011 6.72013 3.27929 6.76598 3.24581 6.80117V6.78383C3.22976 6.7517 3.22178 6.71594 3.22261 6.67983C3.22143 6.64299 3.22941 6.60645 3.24581 6.57367V6.55633M3.16567 6.383C3.17905 6.40449 3.18702 6.42906 3.18887 6.4545C3.18953 6.48039 3.18132 6.5057 3.16567 6.526C3.14204 6.57131 3.12968 6.62193 3.12968 6.67333C3.12968 6.72474 3.14204 6.77535 3.16567 6.82067C3.18132 6.84097 3.18953 6.86628 3.18887 6.89217C3.18702 6.91761 3.17905 6.94218 3.16567 6.96367C3.19361 6.95402 3.21891 6.93769 3.23948 6.916C3.28062 6.89141 3.31477 6.85615 3.3385 6.81376C3.36223 6.77137 3.37472 6.72332 3.37472 6.67442C3.37472 6.62551 3.36223 6.57747 3.3385 6.53507C3.31477 6.49268 3.28062 6.45743 3.23948 6.43283C3.21891 6.41115 3.19361 6.39481 3.16567 6.38517V6.383Z" fill="#DE5C8E"/>
<path d="M3.58745 6.93333C3.57667 6.87287 3.54571 6.81817 3.49991 6.77862C3.4541 6.73908 3.39632 6.71717 3.33649 6.71667V6.64083C3.41175 6.64097 3.48471 6.66744 3.54337 6.71588C3.60202 6.76433 3.64286 6.83185 3.65916 6.90733L3.58745 6.93333Z" fill="#DE5C8E"/>
<path d="M5.15861 6.54117V6.5585C5.17466 6.59064 5.18263 6.62639 5.18181 6.6625C5.18299 6.69934 5.17501 6.73588 5.15861 6.76867V6.786C5.12513 6.75081 5.1043 6.70497 5.09956 6.656C5.1043 6.60703 5.12513 6.56119 5.15861 6.526M5.23664 6.37C5.2087 6.37964 5.1834 6.39598 5.16283 6.41767C5.12168 6.44226 5.08754 6.47751 5.06381 6.51991C5.04008 6.5623 5.02759 6.61035 5.02759 6.65925C5.02759 6.70815 5.04008 6.7562 5.06381 6.79859C5.08754 6.84099 5.12168 6.87624 5.16283 6.90083C5.1834 6.92252 5.2087 6.93886 5.23664 6.9485C5.22326 6.92701 5.21528 6.90244 5.21344 6.877C5.21278 6.85111 5.22099 6.8258 5.23664 6.8055C5.26027 6.76019 5.27263 6.70957 5.27263 6.65817C5.27263 6.60676 5.26027 6.55615 5.23664 6.51083C5.22099 6.49053 5.21278 6.46522 5.21344 6.43933C5.21528 6.41389 5.22326 6.38932 5.23664 6.36783V6.37Z" fill="#DE5C8E"/>
<path d="M4.82118 6.916L4.74948 6.8965C4.76791 6.82508 4.80862 6.76183 4.86537 6.71644C4.92212 6.67105 4.99179 6.64601 5.06371 6.64517V6.71667C5.00757 6.71785 4.95337 6.73802 4.90953 6.77406C4.86568 6.8101 4.83463 6.85999 4.82118 6.916Z" fill="#DE5C8E"/>
<path d="M3.44826 5.23033C3.48175 5.26552 3.50257 5.31137 3.50732 5.36033C3.50257 5.4093 3.48175 5.45515 3.44826 5.49033V5.473C3.43187 5.44021 3.42388 5.40367 3.42507 5.36683C3.42388 5.32999 3.43187 5.29345 3.44826 5.26067V5.24333M3.37656 5.07433C3.38995 5.09582 3.39792 5.12039 3.39976 5.14583C3.40042 5.17172 3.39221 5.19703 3.37656 5.21733C3.35293 5.26265 3.34057 5.31326 3.34057 5.36467C3.34057 5.41607 3.35293 5.46669 3.37656 5.512C3.39221 5.5323 3.40042 5.55761 3.39976 5.5835C3.39792 5.60894 3.38995 5.63351 3.37656 5.655C3.4045 5.64536 3.4298 5.62902 3.45037 5.60733C3.49152 5.58274 3.52566 5.54749 3.54939 5.50509C3.57312 5.4627 3.58561 5.41465 3.58561 5.36575C3.58561 5.31685 3.57312 5.2688 3.54939 5.22641C3.52566 5.18401 3.49152 5.14876 3.45037 5.12417C3.4298 5.10248 3.4045 5.08614 3.37656 5.0765V5.07433Z" fill="#DE5C8E"/>
<path d="M3.76039 5.5445C3.73721 5.50501 3.70439 5.47244 3.66518 5.45001C3.62596 5.42759 3.58172 5.41609 3.53684 5.41667V5.34083C3.59508 5.34093 3.65226 5.35681 3.70261 5.38686C3.75297 5.41691 3.79472 5.46008 3.82365 5.512L3.76039 5.5445Z" fill="#DE5C8E"/>
<path d="M4.95193 5.2325V5.24983C4.96833 5.28262 4.97632 5.31916 4.97513 5.356C4.97632 5.39284 4.96833 5.42938 4.95193 5.46217V5.4795C4.91845 5.44431 4.89763 5.39847 4.89288 5.3495C4.89763 5.30054 4.91845 5.25469 4.95193 5.2195M5.02996 5.0635C5.00202 5.07314 4.97672 5.08948 4.95615 5.11117C4.91501 5.13576 4.88087 5.17101 4.85714 5.21341C4.83341 5.2558 4.82092 5.30385 4.82092 5.35275C4.82092 5.40165 4.83341 5.4497 4.85714 5.49209C4.88087 5.53449 4.91501 5.56974 4.95615 5.59433C4.97672 5.61602 5.00202 5.63236 5.02996 5.642C5.01658 5.62051 5.00861 5.59594 5.00677 5.5705C5.0061 5.54461 5.01431 5.5193 5.02996 5.499C5.05359 5.45369 5.06596 5.40307 5.06596 5.35167C5.06596 5.30026 5.05359 5.24965 5.02996 5.20433C5.01431 5.18403 5.0061 5.15872 5.00677 5.13283C5.00861 5.10739 5.01658 5.08282 5.02996 5.06133V5.0635Z" fill="#DE5C8E"/>
<path d="M4.64192 5.5445L4.57865 5.5055C4.60675 5.45584 4.64662 5.4143 4.69456 5.38475C4.7425 5.3552 4.79694 5.3386 4.85281 5.3365V5.41667C4.81009 5.4183 4.76844 5.43084 4.73162 5.45316C4.6948 5.47547 4.66397 5.50687 4.64192 5.5445Z" fill="#DE5C8E"/>
<path d="M2.843 7.53567C2.87648 7.57085 2.89731 7.6167 2.90205 7.66567C2.89731 7.71463 2.87648 7.76048 2.843 7.79567V7.77833C2.82587 7.74575 2.81716 7.7092 2.81769 7.67217C2.81651 7.63533 2.8245 7.59878 2.84089 7.566V7.54867M2.76286 7.39267C2.77625 7.41416 2.78422 7.43873 2.78606 7.46417C2.78672 7.49006 2.77851 7.51536 2.76286 7.53567C2.73923 7.58098 2.72687 7.63159 2.72687 7.683C2.72687 7.73441 2.73923 7.78502 2.76286 7.83033C2.77851 7.85064 2.78672 7.87594 2.78606 7.90183C2.78422 7.92727 2.77625 7.95184 2.76286 7.97333C2.7908 7.96369 2.8161 7.94735 2.83667 7.92567C2.87782 7.90107 2.91196 7.86582 2.93569 7.82343C2.95942 7.78103 2.97191 7.73299 2.97191 7.68408C2.97191 7.63518 2.95942 7.58713 2.93569 7.54474C2.91196 7.50235 2.87782 7.46709 2.83667 7.4425C2.8161 7.42081 2.7908 7.40448 2.76286 7.39483V7.39267Z" fill="#DE5C8E"/>
<path d="M3.18465 7.93867C3.17379 7.87784 3.14253 7.82285 3.09629 7.78327C3.05005 7.74368 2.99177 7.722 2.93158 7.722V7.64617C3.01056 7.64625 3.08692 7.67533 3.14686 7.72818C3.20681 7.78102 3.24639 7.85414 3.25846 7.93433L3.18465 7.93867Z" fill="#DE5C8E"/>
<path d="M5.56563 7.53567V7.553C5.58276 7.58559 5.59147 7.62214 5.59094 7.65917C5.59212 7.69601 5.58414 7.73255 5.56774 7.76533V7.78267C5.53426 7.74748 5.51344 7.70163 5.50869 7.65267C5.51344 7.6037 5.53426 7.55785 5.56774 7.52267M5.64577 7.36667C5.61783 7.37631 5.59253 7.39265 5.57196 7.41433C5.53082 7.43893 5.49668 7.47418 5.47294 7.51657C5.44921 7.55897 5.43672 7.60701 5.43672 7.65592C5.43672 7.70482 5.44921 7.75287 5.47294 7.79526C5.49668 7.83765 5.53082 7.87291 5.57196 7.8975C5.59253 7.91919 5.61783 7.93552 5.64577 7.94517C5.63239 7.92368 5.62442 7.89911 5.62257 7.87367C5.62191 7.84778 5.63012 7.82247 5.64577 7.80217C5.6694 7.75685 5.68177 7.70624 5.68177 7.65483C5.68177 7.60343 5.6694 7.55281 5.64577 7.5075C5.63012 7.4872 5.62191 7.46189 5.62257 7.436C5.62442 7.41056 5.63239 7.38599 5.64577 7.3645V7.36667Z" fill="#DE5C8E"/>
<path d="M5.22399 7.93867L5.15017 7.92783C5.16245 7.84615 5.20325 7.77184 5.26496 7.71881C5.32667 7.66578 5.40507 7.63765 5.48549 7.63967V7.7155C5.42294 7.71367 5.36189 7.73531 5.31375 7.77639C5.26562 7.81747 5.23371 7.87516 5.22399 7.93867Z" fill="#DE5C8E"/>
<path d="M5.00887 7.58333C5.05921 7.58333 5.10749 7.60388 5.14309 7.64045C5.17868 7.67702 5.19868 7.72662 5.19868 7.77833C5.19868 7.83005 5.17868 7.87965 5.14309 7.91622C5.10749 7.95279 5.05921 7.97333 5.00887 7.97333H3.37656C3.32622 7.97333 3.27794 7.95279 3.24235 7.91622C3.20675 7.87965 3.18676 7.83005 3.18676 7.77833C3.18676 7.72662 3.20675 7.67702 3.24235 7.64045C3.27794 7.60388 3.32622 7.58333 3.37656 7.58333H5.00255M3.37656 7.5075C3.30665 7.5075 3.23959 7.53603 3.19016 7.58683C3.14072 7.63762 3.11294 7.7065 3.11294 7.77833C3.11294 7.85016 3.14072 7.91905 3.19016 7.96984C3.23959 8.02063 3.30665 8.04917 3.37656 8.04917H5.00677C5.07668 8.04917 5.14373 8.02063 5.19317 7.96984C5.24261 7.91905 5.27038 7.85016 5.27038 7.77833C5.27038 7.7065 5.24261 7.63762 5.19317 7.58683C5.14373 7.53603 5.07668 7.5075 5.00677 7.5075H3.37656Z" fill="#DE5C8E"/>
<path d="M4.52804 8.01233H4.64825L4.92452 7.78917L4.64825 7.56817H4.53015L4.80431 7.78917L4.52804 8.01233Z" fill="#DE5C8E"/>
<path d="M3.88481 8.01233L3.60854 7.78917L3.88481 7.56817H3.7646L3.49044 7.78917L3.7646 8.01233H3.88481Z" fill="#DE5C8E"/>
<path d="M4.20748 7.93433C4.28552 7.93433 4.34878 7.86934 4.34878 7.78917C4.34878 7.70899 4.28552 7.644 4.20748 7.644C4.12944 7.644 4.06618 7.70899 4.06618 7.78917C4.06618 7.86934 4.12944 7.93433 4.20748 7.93433Z" fill="#DE5C8E"/>
<path d="M5.37794 9.32967C5.42828 9.32967 5.47655 9.35021 5.51215 9.38678C5.54774 9.42335 5.56774 9.47295 5.56774 9.52467C5.56774 9.57638 5.54774 9.62598 5.51215 9.66255C5.47655 9.69912 5.42828 9.71967 5.37794 9.71967H3.01382C2.96349 9.71967 2.91521 9.69912 2.87961 9.66255C2.84402 9.62598 2.82402 9.57638 2.82402 9.52467C2.82402 9.47295 2.84402 9.42335 2.87961 9.38678C2.91521 9.35021 2.96349 9.32967 3.01382 9.32967H5.37794ZM3.01593 9.25383C2.94602 9.25383 2.87897 9.28237 2.82953 9.33316C2.78009 9.38395 2.75232 9.45284 2.75232 9.52467C2.75232 9.5965 2.78009 9.66538 2.82953 9.71618C2.87897 9.76697 2.94602 9.7955 3.01593 9.7955H5.38426C5.45418 9.7955 5.52123 9.76697 5.57067 9.71618C5.62011 9.66538 5.64788 9.5965 5.64788 9.52467C5.64788 9.45284 5.62011 9.38395 5.57067 9.33316C5.52123 9.28237 5.45418 9.25383 5.38426 9.25383H3.01593Z" fill="#DE5C8E"/>
<path d="M4.78322 9.776H4.90132L5.21344 9.52467L4.92452 9.29067H4.80642L5.09534 9.52467L4.78322 9.776Z" fill="#DE5C8E"/>
<path d="M4.48586 9.776H4.60396L4.91608 9.52467L4.62716 9.29067H4.50906L4.79798 9.52467L4.48586 9.776Z" fill="#DE5C8E"/>
<path d="M3.91434 9.776L3.60222 9.52467L3.89325 9.29067H3.77304L3.48201 9.52467L3.79413 9.776H3.91434Z" fill="#DE5C8E"/>
<path d="M3.62963 9.776L3.31751 9.52467L3.60854 9.29067H3.48623L3.1973 9.52467L3.50942 9.776H3.62963Z" fill="#DE5C8E"/>
<path d="M4.19904 9.66983C4.27708 9.66983 4.34034 9.60484 4.34034 9.52467C4.34034 9.44449 4.27708 9.3795 4.19904 9.3795C4.12101 9.3795 4.05775 9.44449 4.05775 9.52467C4.05775 9.60484 4.12101 9.66983 4.19904 9.66983Z" fill="#DE5C8E"/>
<path d="M2.95688 9.66983C3.03492 9.66983 3.09818 9.60484 3.09818 9.52467C3.09818 9.44449 3.03492 9.3795 2.95688 9.3795C2.87885 9.3795 2.81559 9.44449 2.81559 9.52467C2.81559 9.60484 2.87885 9.66983 2.95688 9.66983Z" fill="#DE5C8E"/>
<path d="M5.44542 9.66983C5.52346 9.66983 5.58672 9.60484 5.58672 9.52467C5.58672 9.44449 5.52346 9.3795 5.44542 9.3795C5.36739 9.3795 5.30413 9.44449 5.30413 9.52467C5.30413 9.60484 5.36739 9.66983 5.44542 9.66983Z" fill="#DE5C8E"/>
<path d="M4.92452 7.3125H4.64192C4.64456 7.296 4.64456 7.27917 4.64192 7.26267C4.64092 7.22835 4.6299 7.19513 4.61029 7.16733L4.54491 7.08283L4.7558 6.81417L4.73471 6.71667L4.50273 7.02217L4.20115 6.62783L3.90169 7.02L3.65494 6.69717L3.62963 6.786L3.85529 7.08067L3.79835 7.15C3.77477 7.1802 3.76145 7.21747 3.76039 7.25617C3.75775 7.27267 3.75775 7.2895 3.76039 7.306H3.45881V7.38183H4.93506L4.92452 7.3125ZM3.95441 7.3125H3.84685C3.83632 7.29809 3.83043 7.28068 3.82998 7.26267C3.83104 7.24038 3.83919 7.21907 3.85318 7.202L3.89958 7.1435L3.9523 7.21067C3.96351 7.22568 3.97012 7.24378 3.97128 7.26267C3.97083 7.28068 3.96494 7.29809 3.95441 7.3125ZM4.39728 7.1565C4.37371 7.1867 4.36038 7.22397 4.35932 7.26267C4.35669 7.27917 4.35669 7.296 4.35932 7.3125H4.03666C4.03929 7.296 4.03929 7.27917 4.03666 7.26267C4.03553 7.22837 4.02452 7.19519 4.00502 7.16733L3.93965 7.08283L4.19272 6.74917L4.4479 7.08283L4.39728 7.1565ZM4.4479 7.3125C4.43737 7.29809 4.43147 7.28068 4.43103 7.26267C4.43208 7.24038 4.44023 7.21907 4.45423 7.202L4.50062 7.1435L4.55335 7.21067C4.56467 7.22561 4.57129 7.24375 4.57233 7.26267C4.5725 7.28044 4.56734 7.29784 4.55756 7.3125H4.4479Z" fill="#DE5C8E"/>
<path d="M4.65036 8.23117L4.49851 8.45L4.34667 8.23117H4.25809L4.49851 8.58217L4.74104 8.23117H4.65036Z" fill="#DE5C8E"/>
<path d="M4.05353 8.23117L3.90169 8.45L3.74984 8.23117H3.66127L3.90169 8.58217L4.14421 8.23117H4.05353Z" fill="#DE5C8E"/>
<defs>
<linearGradient id="paint0_linear_1089_2519" x1="17.4756" y1="13" x2="17.4756" y2="-0.0147577" gradientUnits="userSpaceOnUse">
<stop offset="0.17" stop-color="#DF5F91"/>
<stop offset="0.64" stop-color="#EC86B5"/>
<stop offset="0.91" stop-color="#DE5C8E"/>
</linearGradient>
<linearGradient id="paint1_linear_1089_2519" x1="15.4327" y1="17.1866" x2="15.4568" y2="1.95774" gradientUnits="userSpaceOnUse">
<stop offset="0.48" stop-color="#DF5F91"/>
<stop offset="0.85" stop-color="#EC86B5"/>
</linearGradient>
<linearGradient id="paint2_linear_1089_2519" x1="17.3457" y1="13.7031" x2="17.4028" y2="-5.75752" gradientUnits="userSpaceOnUse">
<stop offset="0.17" stop-color="#DF5F91"/>
<stop offset="0.64" stop-color="#EC86B5"/>
<stop offset="0.91" stop-color="#DE5C8E"/>
</linearGradient>
<linearGradient id="paint3_linear_1089_2519" x1="17.5351" y1="13" x2="17.5351" y2="0" gradientUnits="userSpaceOnUse">
<stop offset="0.19" stop-color="#DF5F91"/>
<stop offset="0.47" stop-color="#EC86B5"/>
<stop offset="1" stop-color="#DE5C8E"/>
</linearGradient>
<linearGradient id="paint4_linear_1089_2519" x1="17.4753" y1="20.5255" x2="17.4753" y2="-3.94657" gradientUnits="userSpaceOnUse">
<stop offset="0.01" stop-color="#DF5F91"/>
<stop offset="0.29" stop-color="#EC86B5"/>
<stop offset="0.72" stop-color="#DE5C8E"/>
</linearGradient>
<linearGradient id="paint5_linear_1089_2519" x1="17.5" y1="13" x2="17.5" y2="-0.00848561" gradientUnits="userSpaceOnUse">
<stop offset="0.3" stop-color="#DF5F91"/>
<stop offset="0.61" stop-color="#EC86B5"/>
<stop offset="1" stop-color="#DE5C8E"/>
</linearGradient>
<linearGradient id="paint6_linear_1089_2519" x1="2.79331e-06" y1="6.50205" x2="35" y2="6.50205" gradientUnits="userSpaceOnUse">
<stop offset="0.23" stop-color="#DF5F91"/>
<stop offset="0.4" stop-color="#EC86B5"/>
<stop offset="1" stop-color="#DE5C8E"/>
</linearGradient>
<linearGradient id="paint7_linear_1089_2519" x1="17.6346" y1="13" x2="17.6346" y2="0" gradientUnits="userSpaceOnUse">
<stop stop-color="#EC86B5" stop-opacity="0"/>
<stop offset="0.75" stop-color="#CE4E82"/>
</linearGradient>
<linearGradient id="paint8_linear_1089_2519" x1="15.509" y1="12.6829" x2="15.6176" y2="-0.124617" gradientUnits="userSpaceOnUse">
<stop stop-color="#EC86B5" stop-opacity="0"/>
<stop offset="0.51" stop-color="#EC86B5"/>
<stop offset="1" stop-color="#EC86B5" stop-opacity="0"/>
</linearGradient>
</defs>
</svg>
